<svg width="663" height="856" viewBox="0 0 663 856" fill="none" xmlns="http://www.w3.org/2000/svg">
<g clip-path="url(#clip0_322_6481)">
<rect width="665" height="856" fill="white"/>
<path d="M60.5283 1002.72C-30.3382 995.188 -97.7448 913.623 -90.0285 820.541C-82.3123 727.458 -2.39505 658.106 88.4715 665.639C179.338 673.171 287.117 826.315 279.401 919.397C271.685 1012.48 151.395 1010.25 60.5283 1002.72Z" fill="#F4EBEB" fill-opacity="0.47"/>
<path d="M260.537 337.89C205.598 442.476 65.0121 476.805 -53.4697 414.566C-171.952 352.327 -223.463 217.089 -168.524 112.503C-113.585 7.9178 156.259 -68.4138 274.741 -6.17506C393.223 56.0637 315.476 233.304 260.537 337.89Z" fill="#C5D0D2"/>
<path d="M655.628 342.821C727.094 380.008 751.411 474.763 709.94 554.461C668.469 634.16 576.915 668.622 505.449 631.434C433.982 594.247 289.757 544.61 331.228 464.911C372.698 385.213 584.161 305.633 655.628 342.821Z" fill="#DCD6CE" fill-opacity="0.35"/>
</g>
<defs>
<clipPath id="clip0_322_6481">
<rect width="665" height="856" fill="white"/>
</clipPath>
</defs>
</svg>
