<svg width="1440" height="1024" viewBox="0 0 1440 1024" fill="none" xmlns="http://www.w3.org/2000/svg">
<path d="M461.255 765.729C370.431 758.217 302.838 679.494 310.283 589.895C317.727 500.296 397.39 433.752 488.214 441.264C579.038 448.776 687.18 596.532 679.735 686.13C672.291 775.729 552.079 773.241 461.255 765.729Z" fill="#F4EBEB" fill-opacity="0.47"/>
<path d="M364.817 344.946C326.896 416.971 229.858 440.612 148.077 397.751C66.2965 354.889 30.7411 261.755 68.6623 189.73C106.583 117.705 292.841 65.1384 374.622 108C456.403 150.862 402.738 272.922 364.817 344.946Z" fill="#C5D0D2"/>
<path d="M1363.96 709.046C1405.96 785.188 1368.35 886.251 1279.96 934.777C1191.57 983.303 1085.88 960.916 1043.88 884.775C1001.89 808.633 901.08 678.235 989.468 629.709C1077.86 581.183 1321.97 632.905 1363.96 709.046Z" fill="#DCD6CE" fill-opacity="0.35"/>
</svg>
