<svg width="1366" height="1024" viewBox="0 0 1366 1024" fill="none" xmlns="http://www.w3.org/2000/svg">
<g clip-path="url(#clip0_343_7380)">
<rect width="1024" height="1366" transform="matrix(0 -1 1 0 0 1024)" fill="white"/>
<path d="M357.707 249.099C334.113 316.474 179.069 392.995 108.016 368.114C36.9626 343.232 76.8057 226.369 100.4 158.994C123.994 91.6184 200.72 57.1708 271.774 82.0528C342.827 106.935 381.301 181.724 357.707 249.099Z" fill="#3F6168" fill-opacity="0.21"/>
<path d="M357.707 212.099C334.113 279.474 179.069 355.995 108.016 331.114C36.9626 306.232 76.8057 189.369 100.4 121.994C123.994 54.6184 200.72 20.1708 271.774 45.0528C342.827 69.9347 381.301 144.724 357.707 212.099Z" fill="#3F6168"/>
<path d="M-36.6024 1162.94C-154.046 1099.17 -189.004 936.519 -114.684 799.651C-40.3634 662.784 115.092 603.529 232.536 667.302C349.979 731.075 390.272 1025.65 315.952 1162.51C241.631 1299.38 80.8412 1226.72 -36.6024 1162.94Z" fill="#E3CCCC"/>
<path d="M9.94059 1208.66C-118.059 1139.16 -161.575 971.859 -87.2549 834.992C-12.9345 698.124 151.079 643.516 279.079 713.021C407.079 782.527 461.272 1084.65 386.952 1221.51C312.631 1358.38 137.941 1278.17 9.94059 1208.66Z" fill="#E3CCCC" fill-opacity="0.38"/>
<path d="M1410.94 119.252C1441.87 241.599 1368.85 365.583 1247.84 396.177C1126.83 426.771 1003.66 352.39 972.727 230.043C941.794 107.695 853.512 -113.723 974.521 -144.317C1095.53 -174.911 1380.01 -3.0958 1410.94 119.252Z" fill="#DCD6CE" fill-opacity="0.35"/>
<path d="M1350.45 89.4417C1381.39 211.789 1308.37 335.773 1187.36 366.367C1066.35 396.961 943.176 322.58 912.243 200.233C881.311 77.8856 793.029 -143.533 914.037 -174.127C1035.05 -204.721 1319.52 -32.9056 1350.45 89.4417Z" fill="#DDD7D5"/>
<path d="M1213.42 1136.55C1203.38 1245.99 1101.39 1326.1 985.619 1315.48C869.85 1304.86 784.141 1207.52 794.183 1098.08C804.226 988.635 969.841 773.272 1085.61 783.894C1201.38 794.517 1223.46 1027.1 1213.42 1136.55Z" fill="#3F6168"/>
<path d="M1260.92 1171.53C1250.88 1280.98 1148.89 1361.09 1033.12 1350.47C917.352 1339.85 831.643 1242.51 841.685 1133.07C851.728 1023.62 1017.34 808.258 1133.11 818.881C1248.88 829.504 1270.97 1062.09 1260.92 1171.53Z" fill="#3F6168" fill-opacity="0.3"/>
</g>
<defs>
<clipPath id="clip0_343_7380">
<rect width="1024" height="1366" fill="white" transform="matrix(0 -1 1 0 0 1024)"/>
</clipPath>
</defs>
</svg>
