<svg width="51" height="82" viewBox="0 0 51 82" fill="none" xmlns="http://www.w3.org/2000/svg">
<path d="M42.5936 14.9799H34.6132C32.6676 14.9799 30.7656 16.3359 30.7656 18.2472C30.7656 22.8563 34.5021 26.5928 39.1112 26.5928H40.8757C45.2362 26.5928 48.4999 30.5925 47.6252 34.8644C46.9688 38.0701 44.148 40.3719 40.8757 40.3719H40.0829C34.9371 40.3719 30.7656 44.5434 30.7656 49.6892V72.3683C30.7656 77.1349 26.9015 80.9991 22.1349 80.9991C17.3683 80.9991 13.5042 77.1349 13.5042 72.3683V47.3391C13.5042 43.4912 10.3848 40.3719 6.53696 40.3719C3.49324 40.3719 1.02582 37.9045 1.02582 34.8608V32.1039C1.02582 29.0602 3.49324 26.5928 6.53696 26.5928C10.3848 26.5928 13.5042 23.4735 13.5042 19.6256V18.2472C13.5042 8.98084 22.8265 1.20081 34.6132 1.20081H42.5936C46.3986 1.20081 49.4831 4.28537 49.4831 8.09037C49.4831 11.8954 46.3986 14.9799 42.5936 14.9799Z" fill="currentColor" stroke="#605A64" stroke-width="1.45606"/>
</svg>
