<svg width="300" height="300" viewBox="0 0 300 300" fill="none" xmlns="http://www.w3.org/2000/svg">
<g clip-path="url(#clip0_144_55)">
<mask id="mask0_144_55" style="mask-type:luminance" maskUnits="userSpaceOnUse" x="98" y="74" width="144" height="139">
<path d="M98.6262 74.137H241.819V212.686H98.6262V74.137Z" fill="white"/>
</mask>
<g mask="url(#mask0_144_55)">
<path d="M170.782 212.578C131.855 212.578 100.191 180.3 100.191 140.626C100.191 139.203 101.327 138.046 102.734 138.046C104.132 138.046 105.268 139.203 105.268 140.626C105.268 177.462 134.652 207.409 170.782 207.409C206.913 207.409 236.304 177.462 236.304 140.626C236.304 114.851 221.5 91.104 198.584 80.1425C197.316 79.5375 196.766 77.9983 197.36 76.7082C197.963 75.418 199.466 74.8575 200.743 75.4714C225.424 87.2693 241.382 112.858 241.382 140.626C241.382 180.3 209.709 212.578 170.782 212.578Z" fill="#444E50"/>
</g>
<path d="M153.293 150.921L170.782 161.215L188.27 150.921V130.35L170.782 120.056L153.293 130.35V150.921ZM170.782 167.177L148.224 153.91V127.352L170.782 114.086L193.348 127.352V153.91L170.782 167.177Z" fill="#444E50"/>
<path d="M124.452 194.046C123.578 194.046 122.722 193.592 122.25 192.747C121.559 191.519 121.97 189.935 123.176 189.224L128.202 186.27V165.69L110.713 155.396L105.714 158.35C104.499 159.062 102.944 158.635 102.244 157.399C101.537 156.17 101.965 154.578 103.171 153.875L110.713 149.427L133.28 162.701V189.251L125.72 193.699C125.318 193.931 124.881 194.046 124.452 194.046Z" fill="#444E50"/>
<path d="M190.805 209.527C189.406 209.527 188.27 208.38 188.27 206.938V201.039L170.782 190.745L153.293 201.039V206.929C153.293 208.353 152.157 209.509 150.768 209.509C149.369 209.509 148.224 208.353 148.224 206.929V198.05L170.782 184.775L193.348 198.05V206.938C193.348 208.38 192.212 209.527 190.805 209.527Z" fill="#444E50"/>
<path d="M217.104 194.037C216.667 194.037 216.239 193.931 215.837 193.699L208.286 189.251V162.701L230.851 149.427L238.411 153.875C239.626 154.586 240.037 156.17 239.338 157.417C238.639 158.644 237.074 159.062 235.877 158.359L230.851 155.396L213.364 165.69V186.27L218.38 189.206C219.586 189.926 219.997 191.51 219.307 192.747C218.826 193.574 217.977 194.037 217.104 194.037Z" fill="#444E50"/>
<path d="M230.851 131.836L208.286 118.561V92.0118L215.846 87.5632C217.06 86.8514 218.616 87.2696 219.315 88.5152C220.015 89.7519 219.594 91.3268 218.389 92.0474L213.364 95.0013V115.572L230.851 125.866L235.85 122.921C237.065 122.2 238.621 122.636 239.32 123.864C240.028 125.101 239.6 126.685 238.394 127.397L230.851 131.836Z" fill="#444E50"/>
<path d="M150.76 131.445C150.323 131.445 149.895 131.329 149.493 131.088L133.612 121.755C132.406 121.035 131.995 119.46 132.686 118.223C133.394 116.978 134.941 116.559 136.156 117.28L152.027 126.614C153.242 127.325 153.661 128.909 152.953 130.145C152.49 130.973 151.634 131.445 150.76 131.445Z" fill="#444E50"/>
<path d="M170.782 119.656C169.383 119.656 168.247 118.499 168.247 117.076V103.018C168.247 101.585 169.383 100.429 170.782 100.429C172.18 100.429 173.316 101.585 173.316 103.018V117.076C173.316 118.499 172.18 119.656 170.782 119.656Z" fill="#444E50"/>
<path d="M190.805 131.444C189.931 131.444 189.084 130.973 188.612 130.145C187.913 128.909 188.323 127.325 189.538 126.614L209.561 114.834C210.776 114.122 212.323 114.54 213.031 115.777C213.721 117.013 213.311 118.597 212.104 119.309L192.073 131.089C191.671 131.329 191.242 131.444 190.805 131.444Z" fill="#444E50"/>
<path d="M210.829 166.785C210.392 166.785 209.963 166.677 209.561 166.437L189.538 154.658C188.323 153.937 187.913 152.362 188.612 151.126C189.311 149.88 190.858 149.461 192.073 150.182L212.104 161.963C213.311 162.674 213.721 164.258 213.031 165.495C212.55 166.322 211.702 166.785 210.829 166.785Z" fill="#444E50"/>
<path d="M170.782 190.345C169.383 190.345 168.247 189.188 168.247 187.765V164.195C168.247 162.772 169.383 161.606 170.782 161.606C172.18 161.606 173.316 162.772 173.316 164.195V187.765C173.316 189.188 172.18 190.345 170.782 190.345Z" fill="#444E50"/>
<path d="M130.737 166.785C129.863 166.785 129.015 166.322 128.534 165.495C127.844 164.258 128.255 162.674 129.478 161.963L149.493 150.182C150.707 149.461 152.263 149.88 152.954 151.126C153.661 152.362 153.242 153.937 152.027 154.658L132.004 166.437C131.602 166.677 131.174 166.785 130.737 166.785Z" fill="#444E50"/>
<mask id="mask1_144_55" style="mask-type:luminance" maskUnits="userSpaceOnUse" x="226" y="46" width="17" height="29">
<path d="M226.158 46.8047H242.37V74.1372H226.158V46.8047Z" fill="white"/>
</mask>
<g mask="url(#mask1_144_55)">
<path d="M228.701 73.5678C228.053 73.5678 227.398 73.3097 226.9 72.8026C225.913 71.7972 225.913 70.169 226.9 69.1547L247.57 48.077C248.566 47.0716 250.174 47.0716 251.162 48.077C252.149 49.0913 252.149 50.7284 251.162 51.7426L230.492 72.8026C230.003 73.3097 229.348 73.5678 228.701 73.5678Z" fill="#444E50"/>
</g>
<mask id="mask2_144_55" style="mask-type:luminance" maskUnits="userSpaceOnUse" x="237" y="69" width="6" height="17">
<path d="M237.345 69.5818H242.37V85.5257H237.345V69.5818Z" fill="white"/>
</mask>
<g mask="url(#mask2_144_55)">
<path d="M239.995 85.081C238.903 85.081 237.881 84.3424 237.566 83.2037C237.173 81.8335 237.95 80.4009 239.296 80.0094L267.386 71.7617C268.732 71.3703 270.139 72.1621 270.532 73.5323C270.908 74.9113 270.139 76.3349 268.794 76.7352L240.703 84.9742C240.467 85.0543 240.222 85.081 239.995 85.081Z" fill="#444E50"/>
</g>
<path d="M216.701 61.3339C216.465 61.3339 216.238 61.2983 215.993 61.236C214.648 60.8446 213.878 59.4032 214.255 58.033L222.347 29.4104C222.732 28.0313 224.148 27.2394 225.485 27.6398C226.831 28.0313 227.608 29.4637 227.224 30.8339L219.131 59.4654C218.817 60.5954 217.802 61.3339 216.701 61.3339Z" fill="#444E50"/>
</g>
<g clip-path="url(#clip1_144_55)">
<path d="M70.5124 57.9781C76.1925 57.9781 80.797 52.327 80.797 45.356C80.797 38.385 76.1925 32.7339 70.5124 32.7339C64.8324 32.7339 60.2278 38.385 60.2278 45.356C60.2278 52.327 64.8324 57.9781 70.5124 57.9781Z" fill="#444E50"/>
<path d="M46.885 76.7734C43.2784 76.7734 40.127 77.8515 38.0787 79.8475C36.2665 81.6119 35.4262 83.9553 35.5663 86.7978C36.8268 112.032 52.9777 125.042 53.144 125.175L64.6204 135.013L72.5601 131.725C71.4922 129.051 72.7177 126.004 75.3089 124.89L83.9577 121.211C85.2183 120.667 86.6101 120.667 87.8619 121.193C89.1312 121.719 90.1116 122.725 90.6369 124L99.899 120.079C100.572 114.768 103.978 110.215 108.793 108.147L118.99 103.808C123.814 101.75 129.391 102.48 133.548 105.706L142.81 101.786C141.733 99.1032 142.958 96.047 145.55 94.942L154.199 91.253C155.451 90.7184 156.842 90.7184 158.103 91.2442C159.363 91.7699 160.344 92.7679 160.878 94.051L168.791 90.6917C169.115 90.567 169.334 90.2729 169.405 89.9343C169.894 87.4483 171.444 82.9484 176.355 80.4624C176.653 80.3376 193.188 72.8616 197.609 56.5108C199.001 51.3782 197.794 46.1567 194.414 42.5568C191.709 39.6788 188.059 38.4401 184.636 39.2332L172.223 42.138C144.482 48.6071 113.494 48.5447 89.0437 41.9865C85.2708 44.4369 83.2836 49.9259 81.6816 54.3989C81.1039 55.985 80.5612 57.482 79.9834 58.7116C70.7044 78.5198 48.9685 76.8803 48.7584 76.8625C48.1193 76.8001 47.4978 76.7734 46.885 76.7734ZM64.6992 140.261C63.4561 140.261 62.2218 139.798 61.2764 138.916L49.9489 129.203C49.2923 128.687 31.8721 114.643 30.489 87.0651C30.2702 82.7078 31.6796 78.9119 34.5683 76.1141C38.0436 72.7369 43.401 71.133 49.2661 71.7122C49.9577 71.7567 67.7805 72.7458 75.4051 56.4841C75.8779 55.4682 76.3768 54.0782 76.9021 52.6168C78.8367 47.2884 81.4716 39.9817 87.573 36.8898L88.4396 36.453L89.3676 36.7115C113.195 43.332 143.746 43.4747 171.085 37.0857L183.498 34.1809C188.69 32.978 194.134 34.769 198.082 38.9659C202.722 43.9113 204.367 50.9684 202.512 57.883C197.426 76.6932 179.253 84.8285 178.491 85.1582C175.786 86.5215 174.753 89.061 174.385 90.9412C173.983 92.9817 172.635 94.6836 170.752 95.4767L162.865 98.8448C160.274 99.9498 157.28 98.6934 156.195 96.047L147.52 99.7272C148.028 101.037 148.036 102.453 147.52 103.728C147.003 105.02 146.023 106.017 144.77 106.561L135.544 110.491C133.855 111.212 131.912 110.954 130.467 109.823C127.762 107.72 124.103 107.239 120.96 108.576L110.762 112.933C107.602 114.277 105.379 117.254 104.958 120.712C104.722 122.547 103.54 124.142 101.86 124.846L92.6328 128.793C90.0329 129.889 87.0391 128.642 85.9536 126.004L77.2872 129.667C77.7862 130.986 77.8037 132.393 77.2872 133.685C76.7532 134.959 75.7904 135.975 74.521 136.509L66.66 139.86C66.0297 140.136 65.3645 140.261 64.6992 140.261Z" fill="#444E50"/>
<path d="M109.493 57.6958C109.239 57.6958 108.968 57.6601 108.705 57.5709C107.374 57.1165 106.647 55.6552 107.077 54.3008L110.788 42.7616C111.226 41.3983 112.653 40.6587 113.992 41.1042C115.323 41.5498 116.05 43.0111 115.621 44.3744L111.909 55.9136C111.559 57.0006 110.57 57.6958 109.493 57.6958Z" fill="#444E50"/>
<path d="M121.381 58.6583C121.127 58.6583 120.864 58.6137 120.584 58.5246C119.263 58.0791 118.527 56.6177 118.974 55.2634L122.676 43.7153C123.123 42.352 124.541 41.6123 125.88 42.0668C127.22 42.5034 127.947 43.9647 127.509 45.328L123.797 56.8761C123.447 57.9544 122.458 58.6583 121.381 58.6583Z" fill="#444E50"/>
<path d="M134.678 58.4622C134.416 58.4622 134.153 58.4177 133.89 58.3375C132.551 57.883 131.815 56.4217 132.262 55.0672L135.965 43.5281C136.412 42.1558 137.83 41.4163 139.169 41.8707C140.508 42.3073 141.235 43.7687 140.797 45.123L137.095 56.6801C136.736 57.7672 135.746 58.4622 134.678 58.4622Z" fill="#444E50"/>
<mask id="mask3_144_55" style="mask-type:luminance" maskUnits="userSpaceOnUse" x="0" y="0" width="41" height="82">
<path d="M0.375916 0H40.0922V81.8792H0.375916V0Z" fill="white"/>
</mask>
<g mask="url(#mask3_144_55)">
<path d="M36.9409 80.0348C35.6541 80.0348 34.5511 79.0369 34.4197 77.7003C34.4023 77.4775 31.7236 54.2922 1.04125 5.34649C0.288421 4.14357 0.629823 2.54857 1.8116 1.77336C2.99337 0.998136 4.56907 1.35456 5.3219 2.55748C36.8271 52.813 39.3832 76.2211 39.4883 77.1835C39.6109 78.6181 38.6041 79.8834 37.1948 80.0259C37.116 80.0348 37.0285 80.0348 36.9409 80.0348Z" fill="#444E50"/>
</g>
<mask id="mask4_144_55" style="mask-type:luminance" maskUnits="userSpaceOnUse" x="46" y="0" width="42" height="48">
<path d="M46.8154 0H87.1533V47.6626H46.8154V0Z" fill="white"/>
</mask>
<g mask="url(#mask4_144_55)">
<path d="M83.0301 47.5289C82.2947 47.5289 81.5681 47.2082 81.0692 46.6022C80.1851 45.5063 59.4121 19.523 48.6361 -15.6915C48.2246 -17.0549 48.9775 -18.5072 50.3169 -18.935C51.6562 -19.3716 53.0831 -18.5964 53.5033 -17.2331C63.9554 16.9924 84.7809 43.038 84.9909 43.2964C85.8751 44.4102 85.7351 46.0409 84.6496 46.9498C84.1681 47.3507 83.5991 47.5289 83.0301 47.5289Z" fill="#444E50"/>
</g>
<path d="M26.3489 48.0904C25.0882 48.0904 23.994 47.1459 23.8277 45.8449C23.6439 44.4282 24.6243 43.1272 26.0162 42.9312C42.3771 40.7392 56.3484 33.1919 66.424 21.127C67.3432 20.0399 68.9276 19.9152 70.0044 20.833C71.0723 21.7597 71.1949 23.3904 70.2933 24.4952C59.3859 37.5492 44.303 45.7024 26.6814 48.0726C26.5676 48.0904 26.4626 48.0904 26.3489 48.0904Z" fill="#444E50"/>
<path d="M49.3367 127.741C48.365 127.741 47.4371 127.171 47.0169 126.2C46.4478 124.89 47.0257 123.366 48.3125 122.787L169.606 68.1212C169.694 68.0855 183.858 61.1352 185.906 49.6406C186.151 48.2328 187.473 47.2971 188.856 47.5466C190.239 47.805 191.15 49.1595 190.905 50.5673C188.392 64.7084 172.389 72.514 171.716 72.8348L50.3609 127.528C50.0282 127.68 49.6868 127.741 49.3367 127.741Z" fill="#444E50"/>
<path d="M69.052 28.355L27.3174 47.3125L34.8317 64.6158L76.5663 45.6583L69.052 28.355Z" fill="#444E50"/>
<path d="M41.7156 74.8077C46.2596 74.8077 49.9433 71.0403 49.9433 66.393C49.9433 61.7457 46.2596 57.9783 41.7156 57.9783C37.1715 57.9783 33.4879 61.7457 33.4879 66.393C33.4879 71.0403 37.1715 74.8077 41.7156 74.8077Z" fill="#444E50"/>
<path d="M51.9999 72.7039C57.6799 72.7039 62.2844 67.0528 62.2844 60.0818C62.2844 53.1108 57.6799 47.4597 51.9999 47.4597C46.3198 47.4597 41.7153 53.1108 41.7153 60.0818C41.7153 67.0528 46.3198 72.7039 51.9999 72.7039Z" fill="#444E50"/>
<path d="M58.1714 72.7039C63.8514 72.7039 68.456 67.0528 68.456 60.0818C68.456 53.1108 63.8514 47.4597 58.1714 47.4597C52.4913 47.4597 47.8868 53.1108 47.8868 60.0818C47.8868 67.0528 52.4913 72.7039 58.1714 72.7039Z" fill="#444E50"/>
<path d="M66.3987 70.6004C72.0787 70.6004 76.6833 64.9493 76.6833 57.9783C76.6833 51.0073 72.0787 45.3562 66.3987 45.3562C60.7187 45.3562 56.1141 51.0073 56.1141 57.9783C56.1141 64.9493 60.7187 70.6004 66.3987 70.6004Z" fill="#444E50"/>
<path d="M67.4271 53.7707C72.5391 53.7707 76.6832 47.1778 76.6832 39.0449C76.6832 30.9121 72.5391 24.3191 67.4271 24.3191C62.315 24.3191 58.1709 30.9121 58.1709 39.0449C58.1709 47.1778 62.315 53.7707 67.4271 53.7707Z" fill="#444E50"/>
</g>
<defs>
<clipPath id="clip0_144_55">
<rect width="144.37" height="186.57" fill="white" transform="translate(98 27)"/>
</clipPath>
<clipPath id="clip1_144_55">
<rect width="203.44" height="141.13" fill="white"/>
</clipPath>
</defs>
</svg>
