<svg width="46" height="48" viewBox="0 0 46 48" fill="none" xmlns="http://www.w3.org/2000/svg">
<path d="M23.8649 21.0682L41.055 21.0753C43.1454 21.0762 44.91 22.5802 44.91 24.552C44.91 31.2985 42.7466 37.0329 38.9901 41.0758C35.2367 45.1153 29.8623 47.5 23.3678 47.5C10.9747 47.5 0.910034 37.011 0.910034 24C0.910034 10.989 10.9747 0.5 23.3678 0.5C27.8197 0.5 31.7277 1.7461 35.0365 3.92147C36.7522 5.0494 36.8206 7.51093 35.2729 9.06852C33.7682 10.5829 31.2416 10.5609 29.1232 9.58084C27.5542 8.85495 25.6409 8.353 23.3649 8.353C15.223 8.353 8.63397 15.3923 8.63397 24.003C8.63397 32.6137 15.223 39.653 23.3649 39.653C28.2618 39.653 31.5936 37.7247 33.7308 35.3393C34.4137 34.577 34.7562 33.7389 34.7927 32.9011C34.8292 32.0669 34.5609 31.2713 34.0882 30.5905C33.1479 29.2364 31.3815 28.303 29.3912 28.303H29.2401C26.2715 28.303 23.8649 25.8964 23.8649 22.9278V21.0682Z" fill="currentColor" stroke="#605A64"/>
</svg>
