<svg width="260" height="35" viewBox="0 0 260 35" fill="none" xmlns="http://www.w3.org/2000/svg">
<path d="M0.776832 34.6296C0.258944 34.6296 0 34.3607 0 33.8185V2.27541C0 1.73765 0.258944 1.46436 0.776832 1.46436H5.74855C6.27507 1.46436 6.54265 1.73765 6.54265 2.27541V17.8971C6.54265 18.0293 6.57717 18.1043 6.64623 18.1263C6.72391 18.1395 6.79296 18.0999 6.85338 18.0029L13.0335 10.7563C13.3442 10.4389 13.6636 10.2802 14.0002 10.2802H19.6107C19.8265 10.2802 19.9991 10.3243 20.1286 10.4036C20.2537 10.4742 20.3185 10.5932 20.3185 10.7563C20.3185 10.9458 20.2537 11.1177 20.1286 11.2676L14.4145 18.5671C14.3196 18.6641 14.311 18.7919 14.38 18.955L21.1989 33.6775L21.2852 34.0654C21.2852 34.4444 21.0521 34.6296 20.5947 34.6296H15.3467C14.9195 34.6296 14.6087 34.4268 14.4145 34.0125L9.92618 23.169C9.83124 22.9838 9.70608 22.9662 9.5464 23.1161L6.68075 26.854C6.58581 26.9862 6.54265 27.0964 6.54265 27.189V33.8185C6.54265 34.3607 6.27507 34.6296 5.74855 34.6296H0.776832Z" fill="#444E50"/>
<path d="M28.3266 7.9519C27.1527 7.9519 26.1903 7.58163 25.4437 6.8411C24.7057 6.10057 24.3389 5.14846 24.3389 3.98477C24.3389 2.81226 24.7057 1.85133 25.4437 1.1108C26.1903 0.370266 27.1527 0 28.3266 0C29.535 0 30.5017 0.365858 31.2268 1.09317C31.9518 1.81166 32.3143 2.77699 32.3143 3.98477C32.3143 5.18372 31.9518 6.14906 31.2268 6.87636C30.5017 7.59486 29.535 7.9519 28.3266 7.9519ZM25.8753 34.6287C25.3444 34.6287 25.0812 34.3598 25.0812 33.8176V11.0903C25.0812 10.5526 25.3444 10.2793 25.8753 10.2793H30.8297C31.3562 10.2793 31.6238 10.5526 31.6238 11.0903V33.8176C31.6238 34.3598 31.3562 34.6287 30.8297 34.6287H25.8753Z" fill="#444E50"/>
<path d="M47.2557 35.0001C44.7784 35.0001 42.6378 34.3742 40.8338 33.1135C39.0255 31.8573 37.7308 30.1161 36.9497 27.8945C36.4318 26.3209 36.1729 24.4564 36.1729 22.3053C36.1729 20.1895 36.4318 18.3646 36.9497 16.8218C37.6963 14.6708 38.9781 12.9781 40.7993 11.7439C42.6292 10.5097 44.7784 9.89258 47.2557 9.89258C49.7286 9.89258 51.8994 10.5273 53.7638 11.7968C55.6368 13.0575 56.8884 14.6487 57.5098 16.575C57.6911 17.0246 57.8119 17.5183 57.8724 18.0561V18.1442C57.8724 18.5586 57.6393 18.8098 57.1818 18.9024L52.3137 19.6605L52.072 19.7134C51.7009 19.7134 51.4894 19.5195 51.4333 19.1316L51.2952 18.4792C51.0751 17.6593 50.5917 16.9805 49.8451 16.4516C49.1071 15.9138 48.2267 15.6405 47.2039 15.6405C46.2112 15.6405 45.3783 15.8962 44.7007 16.3987C44.0189 16.8924 43.5441 17.5888 43.2679 18.4792C42.9227 19.4225 42.75 20.714 42.75 22.3582C42.75 24.0068 42.9054 25.2983 43.2161 26.2372C43.4923 27.1893 43.9757 27.9386 44.6662 28.4764C45.3654 29.0053 46.2112 29.2698 47.2039 29.2698C48.1706 29.2698 49.0165 29.0142 49.7415 28.494C50.4666 27.9783 50.9672 27.273 51.2434 26.3782L51.2952 26.149C51.3168 26.0212 51.4203 25.8757 51.6059 25.7082C51.8001 25.5319 52.003 25.457 52.2101 25.479L57.0955 26.2372C57.3372 26.3077 57.5098 26.4267 57.6134 26.5898C57.7256 26.7441 57.7688 26.9248 57.7342 27.1364C57.6738 27.6433 57.6005 28.0091 57.5098 28.2295C56.8538 30.3454 55.585 32.0027 53.712 33.2017C51.8476 34.4006 49.694 35.0001 47.2557 35.0001Z" fill="#444E50"/>
<path d="M62.4585 34.6296C61.9406 34.6296 61.6816 34.3607 61.6816 33.8185V2.27541C61.6816 1.73765 61.9406 1.46436 62.4585 1.46436H67.4302C67.9567 1.46436 68.2243 1.73765 68.2243 2.27541V17.8971C68.2243 18.0293 68.2588 18.1043 68.3279 18.1263C68.4056 18.1395 68.4746 18.0999 68.535 18.0029L74.7151 10.7563C75.0259 10.4389 75.3452 10.2802 75.6819 10.2802H81.2923C81.5081 10.2802 81.6807 10.3243 81.8102 10.4036C81.9354 10.4742 82.0001 10.5932 82.0001 10.7563C82.0001 10.9458 81.9354 11.1177 81.8102 11.2676L76.0962 18.5671C76.0012 18.6641 75.9926 18.7919 76.0617 18.955L82.8805 33.6775L82.9668 34.0654C82.9668 34.4444 82.7338 34.6296 82.2763 34.6296H77.0284C76.6011 34.6296 76.2904 34.4268 76.0962 34.0125L71.6078 23.169C71.5129 22.9838 71.3877 22.9662 71.228 23.1161L68.3624 26.854C68.2674 26.9862 68.2243 27.0964 68.2243 27.189V33.8185C68.2243 34.3607 67.9567 34.6296 67.4302 34.6296H62.4585Z" fill="#444E50"/>
<path d="M95.7661 34.9627C93.6946 34.9627 91.882 34.663 90.3283 34.0635C88.7833 33.4641 87.5921 32.631 86.7549 31.5598C85.9263 30.4799 85.512 29.2589 85.512 27.8924V27.6632C85.512 27.1255 85.7709 26.8522 86.2888 26.8522H90.9843C91.5022 26.8522 91.7611 26.9491 91.7611 27.1343V27.4693C91.7611 28.1657 92.128 28.7564 92.866 29.2501C93.6126 29.7438 94.5621 29.9906 95.7144 29.9906C96.7588 29.9906 97.6046 29.7878 98.252 29.3735C98.908 28.9636 99.236 28.4214 99.236 27.7514C99.236 27.1872 98.9511 26.764 98.3901 26.4819C97.8377 26.1998 96.9271 25.9001 95.6626 25.5827C94.1521 25.1727 93.0257 24.8069 92.279 24.4895C90.2636 23.7975 88.6711 22.9467 87.4972 21.9329C86.3233 20.9235 85.7364 19.4733 85.7364 17.5779C85.7364 15.2417 86.6341 13.3815 88.4294 12.0063C90.2247 10.631 92.5725 9.94336 95.4727 9.94336C97.4493 9.94336 99.1885 10.2695 100.686 10.9131C102.192 11.5611 103.353 12.4735 104.173 13.646C104.989 14.8097 105.399 16.1321 105.399 17.6131C105.399 17.7807 105.33 17.9217 105.192 18.0363C105.054 18.1421 104.864 18.195 104.622 18.195H100.065C99.5467 18.195 99.2878 18.098 99.2878 17.8953V17.6131C99.2878 16.9211 98.9468 16.3393 98.2693 15.8676C97.5874 15.4004 96.6724 15.1623 95.5245 15.1623C94.4973 15.1623 93.6514 15.3519 92.9868 15.7266C92.3308 16.1056 92.0028 16.6258 92.0028 17.2958C92.0028 17.9217 92.3179 18.3889 92.9523 18.7063C93.5824 19.0237 94.6268 19.3587 96.0769 19.7113C96.9745 19.9009 97.842 20.1345 98.6836 20.4166C100.902 21.0778 102.645 21.9285 103.914 22.9732C105.192 24.0223 105.83 25.5386 105.83 27.5222C105.83 29.8628 104.915 31.6921 103.086 33.0056C101.264 34.3104 98.826 34.9627 95.7661 34.9627Z" fill="#3F6168"/>
<path d="M136.011 9.89258C138.428 9.89258 140.314 10.6419 141.674 12.1318C143.029 13.6129 143.711 15.6934 143.711 18.3734V33.8188C143.711 34.361 143.452 34.6299 142.934 34.6299H137.962C137.431 34.6299 137.168 34.361 137.168 33.8188V19.8545C137.168 18.5497 136.844 17.5227 136.201 16.7689C135.554 16.0196 134.691 15.6405 133.612 15.6405C132.529 15.6405 131.644 16.0196 130.953 16.7689C130.271 17.5227 129.935 18.5321 129.935 19.8016V33.8188C129.935 34.361 129.676 34.6299 129.158 34.6299H124.238C123.707 34.6299 123.444 34.361 123.444 33.8188V19.8545C123.444 18.585 123.103 17.5712 122.425 16.8042C121.744 16.0284 120.863 15.6405 119.784 15.6405C118.792 15.6405 117.963 15.9403 117.298 16.5397C116.629 17.1392 116.237 17.9767 116.124 19.0434V33.8188C116.124 34.361 115.857 34.6299 115.33 34.6299H110.359C109.841 34.6299 109.582 34.361 109.582 33.8188V11.0915C109.582 10.5538 109.841 10.2805 110.359 10.2805H115.33C115.857 10.2805 116.124 10.5538 116.124 11.0915V12.6079C116.124 12.7269 116.159 12.8018 116.228 12.8371C116.306 12.8723 116.375 12.8283 116.435 12.696C117.713 10.8271 119.663 9.89258 122.287 9.89258C123.828 9.89258 125.17 10.2232 126.31 10.88C127.458 11.5279 128.347 12.4624 128.968 13.6834C129.003 13.8156 129.054 13.8729 129.123 13.8597C129.201 13.8377 129.27 13.7804 129.331 13.6834C130.043 12.4271 130.971 11.4794 132.11 10.8447C133.258 10.2099 134.561 9.89258 136.011 9.89258Z" fill="#3F6168"/>
<path d="M157.853 9.89258C159.864 9.89258 161.66 10.254 163.239 10.9681C164.814 11.6734 166.04 12.6431 166.916 13.8773C167.801 15.1116 168.245 16.4868 168.245 18.0032V33.8188C168.245 34.361 167.978 34.6299 167.451 34.6299H162.497C161.966 34.6299 161.703 34.361 161.703 33.8188V32.6904C161.703 32.5625 161.673 32.492 161.617 32.4788C161.556 32.4567 161.478 32.492 161.375 32.5846C159.959 34.1979 157.84 35.0001 155.022 35.0001C152.64 35.0001 150.724 34.4006 149.274 33.2017C147.823 32.0027 147.098 30.2352 147.098 27.8945C147.098 25.4746 147.931 23.5924 149.602 22.2524C151.267 20.9036 153.65 20.2248 156.748 20.2248H161.427C161.608 20.2248 161.703 20.1322 161.703 19.9426V18.9553C161.703 17.9106 161.383 17.0995 160.753 16.5221C160.119 15.9358 159.2 15.6405 157.991 15.6405C157.068 15.6405 156.304 15.7992 155.695 16.1166C155.095 16.4251 154.685 16.8659 154.47 17.4389C154.284 17.8753 153.973 18.0825 153.537 18.0561L148.393 17.3861C148.151 17.3508 147.953 17.2803 147.806 17.1745C147.668 17.0599 147.616 16.9056 147.651 16.716C147.81 15.4245 148.346 14.2608 149.256 13.225C150.163 12.1803 151.367 11.3648 152.864 10.7742C154.37 10.1879 156.032 9.89258 157.853 9.89258ZM156.938 30.028C158.259 30.028 159.381 29.6709 160.305 28.9524C161.237 28.2251 161.703 27.2907 161.703 26.149V24.4916C161.703 24.3065 161.608 24.2095 161.427 24.2095H158.129C156.735 24.2095 155.635 24.4828 154.832 25.0206C154.038 25.5495 153.641 26.3077 153.641 27.2951C153.641 28.1414 153.939 28.8114 154.539 29.3051C155.147 29.79 155.946 30.028 156.938 30.028Z" fill="#3F6168"/>
<path d="M184.671 9.94336C185.659 9.94336 186.475 10.1329 187.122 10.5076C187.489 10.6971 187.627 11.0321 187.536 11.5126L186.656 16.4847C186.621 16.7668 186.535 16.9431 186.397 17.0137C186.259 17.0754 186.034 17.0666 185.724 16.996C185.227 16.8814 184.778 16.8197 184.377 16.8197C184.17 16.8197 183.816 16.8506 183.324 16.9079C182.206 17.0049 181.261 17.4192 180.493 18.1597C179.72 18.9003 179.336 19.8876 179.336 21.1219V33.8167C179.336 34.3589 179.069 34.6277 178.542 34.6277H173.571C173.053 34.6277 172.794 34.3589 172.794 33.8167V11.0894C172.794 10.5517 173.053 10.2784 173.571 10.2784H178.542C179.069 10.2784 179.336 10.5517 179.336 11.0894V12.5529C179.336 12.6851 179.362 12.7644 179.423 12.7997C179.479 12.8261 179.552 12.7909 179.647 12.6939C180.89 10.8602 182.565 9.94336 184.671 9.94336Z" fill="#3F6168"/>
<path d="M204.229 14.8284C204.229 15.3705 203.97 15.6394 203.452 15.6394H199.274C199.089 15.6394 198.998 15.7364 198.998 15.9215V25.7247C198.998 26.7738 199.205 27.5408 199.62 28.0345C200.034 28.5194 200.707 28.7574 201.639 28.7574H202.934C203.461 28.7574 203.728 29.0219 203.728 29.5508V33.6414C203.728 34.1483 203.461 34.4304 202.934 34.4877C201.76 34.5494 200.906 34.5759 200.379 34.5759C197.811 34.5759 195.895 34.1351 194.631 33.2535C193.362 32.3719 192.714 30.7321 192.68 28.3342V15.9215C192.68 15.7364 192.585 15.6394 192.404 15.6394H190.039C189.508 15.6394 189.245 15.3705 189.245 14.8284V11.0904C189.245 10.5527 189.508 10.2794 190.039 10.2794H192.404C192.585 10.2794 192.68 10.1868 192.68 9.99727V4.63723C192.68 4.09946 192.943 3.82617 193.474 3.82617H198.204C198.731 3.82617 198.998 4.09946 198.998 4.63723V9.99727C198.998 10.1868 199.089 10.2794 199.274 10.2794H203.452C203.97 10.2794 204.229 10.5527 204.229 11.0904V14.8284Z" fill="#3F6168"/>
<path d="M219.677 29.3733C221.714 29.2807 223.272 28.5534 224.355 27.1869C224.55 26.9665 224.752 26.8519 224.96 26.8519C225.154 26.8519 225.326 26.9357 225.477 27.0988L228.119 29.7083C228.3 29.8978 228.395 30.0874 228.395 30.2725C228.395 30.4973 228.334 30.6868 228.222 30.8367C227.195 32.1326 225.883 33.1465 224.286 33.887C222.698 34.6275 220.959 34.9978 219.073 34.9978C216.229 34.9978 213.868 34.2572 211.995 32.7762C210.131 31.2951 208.871 29.2631 208.215 26.6756C207.843 25.2783 207.662 23.8105 207.662 22.2677C207.662 20.434 207.835 18.8824 208.18 17.6129C208.789 15.2855 210.031 13.4122 211.909 11.9884C213.782 10.5691 216.004 9.85498 218.572 9.85498C221.598 9.85498 223.997 10.7718 225.771 12.6055C227.553 14.4304 228.71 17.0046 229.241 20.3282C229.353 21.3641 229.448 22.5145 229.517 23.784C229.517 24.313 229.249 24.5774 228.723 24.5774H214.481C214.295 24.5774 214.205 24.6744 214.205 24.8596C214.295 25.5296 214.403 26.0232 214.533 26.3406C214.843 27.3192 215.452 28.0685 216.363 28.5975C217.269 29.1176 218.374 29.3733 219.677 29.3733ZM218.469 15.6382C217.476 15.6382 216.647 15.885 215.983 16.3787C215.327 16.8636 214.869 17.5424 214.619 18.424C214.468 19.0235 214.377 19.4202 214.343 19.6053C214.308 19.7948 214.386 19.8874 214.585 19.8874H222.456C222.616 19.8874 222.698 19.8301 222.698 19.7111C222.698 19.3585 222.633 18.997 222.508 18.6179C222.232 17.7011 221.753 16.9782 221.075 16.4492C220.394 15.9115 219.526 15.6382 218.469 15.6382Z" fill="#3F6168"/>
<path d="M245.425 9.94336C246.414 9.94336 247.229 10.1329 247.877 10.5076C248.243 10.6971 248.382 11.0321 248.291 11.5126L247.41 16.4847C247.376 16.7668 247.29 16.9431 247.152 17.0137C247.013 17.0754 246.789 17.0666 246.478 16.996C245.982 16.8814 245.533 16.8197 245.132 16.8197C244.925 16.8197 244.571 16.8506 244.079 16.9079C242.961 17.0049 242.016 17.4192 241.248 18.1597C240.475 18.9003 240.091 19.8876 240.091 21.1219V33.8167C240.091 34.3589 239.823 34.6277 239.297 34.6277H234.325C233.807 34.6277 233.548 34.3589 233.548 33.8167V11.0894C233.548 10.5517 233.807 10.2784 234.325 10.2784H239.297C239.823 10.2784 240.091 10.5517 240.091 11.0894V12.5529C240.091 12.6851 240.117 12.7644 240.177 12.7997C240.233 12.8261 240.307 12.7909 240.402 12.6939C241.645 10.8602 243.319 9.94336 245.425 9.94336Z" fill="#3F6168"/>
<path d="M255.022 34.8228C253.814 34.8228 252.804 34.4261 252.001 33.6238C251.194 32.8128 250.793 31.8386 250.793 30.6969C250.793 29.595 251.224 28.6429 252.087 27.8406C252.959 27.0296 253.939 26.624 255.022 26.624C256.161 26.624 257.163 27.0296 258.026 27.8406C258.898 28.6429 259.338 29.595 259.338 30.6969C259.338 31.8386 258.915 32.8128 258.078 33.6238C257.236 34.4261 256.218 34.8228 255.022 34.8228Z" fill="#3F6168"/>
</svg>
