<svg width="660" height="216" viewBox="0 0 660 216" fill="none" xmlns="http://www.w3.org/2000/svg">
<mask id="mask0_332_4682" style="mask-type:luminance" maskUnits="userSpaceOnUse" x="515" y="75" width="145" height="141">
<path d="M515.629 75.4983H659.447V215.109H515.629V75.4983Z" fill="white"/>
</mask>
<g mask="url(#mask0_332_4682)">
<path d="M588.1 215.001C549.002 215.001 517.2 182.475 517.2 142.497C517.2 141.063 518.341 139.897 519.754 139.897C521.159 139.897 522.3 141.063 522.3 142.497C522.3 179.615 551.811 209.792 588.1 209.792C624.388 209.792 653.908 179.615 653.908 142.497C653.908 116.524 639.038 92.5955 616.022 81.55C614.75 80.9403 614.196 79.3893 614.793 78.0893C615.399 76.7893 616.909 76.2245 618.19 76.8431C642.979 88.7314 659.008 114.516 659.008 142.497C659.008 182.475 627.197 215.001 588.1 215.001Z" fill="#444E50"/>
</g>
<path d="M570.535 152.871L588.099 163.244L605.664 152.871V132.142L588.099 121.769L570.535 132.142V152.871ZM588.099 169.25L565.443 155.883V129.121L588.099 115.753L610.764 129.121V155.883L588.099 169.25Z" fill="#444E50"/>
<path d="M541.568 196.326C540.69 196.326 539.829 195.869 539.355 195.017C538.662 193.78 539.075 192.184 540.286 191.467L545.333 188.491V167.753L527.769 157.38L522.748 160.357C521.527 161.074 519.965 160.644 519.263 159.398C518.552 158.16 518.982 156.555 520.193 155.847L527.769 151.364L550.433 164.741V191.494L542.84 195.977C542.437 196.21 541.998 196.326 541.568 196.326Z" fill="#444E50"/>
<path d="M608.21 211.926C606.805 211.926 605.664 210.77 605.664 209.317V203.373L588.099 193L570.535 203.373V209.308C570.535 210.743 569.393 211.908 567.998 211.908C566.593 211.908 565.443 210.743 565.443 209.308V200.361L588.099 186.984L610.764 200.361V209.317C610.764 210.77 609.623 211.926 608.21 211.926Z" fill="#444E50"/>
<path d="M634.623 196.317C634.184 196.317 633.754 196.21 633.35 195.977L625.766 191.494V164.741L648.431 151.364L656.024 155.847C657.244 156.564 657.656 158.16 656.954 159.415C656.252 160.653 654.681 161.074 653.478 160.366L648.431 157.38L630.866 167.753V188.491L635.904 191.449C637.116 192.175 637.528 193.771 636.835 195.017C636.352 195.851 635.501 196.317 634.623 196.317Z" fill="#444E50"/>
<path d="M648.431 133.64L625.766 120.263V93.5101L633.359 89.0273C634.579 88.3101 636.141 88.7314 636.844 89.9866C637.546 91.2328 637.125 92.8197 635.913 93.5459L630.866 96.5225V117.251L648.431 127.624L653.452 124.656C654.672 123.93 656.234 124.369 656.936 125.607C657.648 126.853 657.217 128.449 656.006 129.166L648.431 133.64Z" fill="#444E50"/>
<path d="M567.989 133.245C567.55 133.245 567.12 133.129 566.716 132.886L550.767 123.482C549.556 122.755 549.143 121.169 549.836 119.922C550.547 118.667 552.101 118.246 553.321 118.972L569.262 128.377C570.482 129.094 570.904 130.69 570.193 131.936C569.727 132.77 568.867 133.245 567.989 133.245Z" fill="#444E50"/>
<path d="M588.099 121.366C586.695 121.366 585.554 120.2 585.554 118.766V104.6C585.554 103.157 586.695 101.991 588.099 101.991C589.504 101.991 590.645 103.157 590.645 104.6V118.766C590.645 120.2 589.504 121.366 588.099 121.366Z" fill="#444E50"/>
<path d="M608.21 133.245C607.332 133.245 606.481 132.77 606.007 131.936C605.304 130.69 605.717 129.094 606.937 128.377L627.047 116.507C628.267 115.789 629.821 116.211 630.532 117.457C631.226 118.703 630.813 120.299 629.602 121.016L609.483 132.887C609.079 133.129 608.649 133.245 608.21 133.245Z" fill="#444E50"/>
<path d="M628.32 168.856C627.881 168.856 627.451 168.748 627.047 168.506L606.937 156.636C605.717 155.91 605.304 154.323 606.007 153.077C606.709 151.822 608.262 151.4 609.483 152.126L629.602 163.997C630.813 164.714 631.226 166.31 630.532 167.556C630.049 168.39 629.198 168.856 628.32 168.856Z" fill="#444E50"/>
<path d="M588.099 192.597C586.695 192.597 585.554 191.431 585.554 189.997V166.247C585.554 164.813 586.695 163.638 588.099 163.638C589.504 163.638 590.645 164.813 590.645 166.247V189.997C590.645 191.431 589.504 192.597 588.099 192.597Z" fill="#444E50"/>
<path d="M547.879 168.856C547.001 168.856 546.15 168.39 545.667 167.556C544.973 166.31 545.386 164.714 546.615 163.997L566.716 152.126C567.937 151.4 569.499 151.822 570.193 153.077C570.904 154.323 570.482 155.91 569.262 156.636L549.152 168.506C548.748 168.748 548.318 168.856 547.879 168.856Z" fill="#444E50"/>
<mask id="mask1_332_4682" style="mask-type:luminance" maskUnits="userSpaceOnUse" x="643" y="47" width="17" height="29">
<path d="M643.717 47.9564H660V75.4984H643.717V47.9564Z" fill="white"/>
</mask>
<g mask="url(#mask1_332_4682)">
<path d="M646.271 74.9246C645.622 74.9246 644.963 74.6646 644.463 74.1535C643.471 73.1404 643.471 71.4998 644.463 70.4777L665.223 49.2384C666.224 48.2253 667.839 48.2253 668.831 49.2384C669.823 50.2605 669.823 51.9102 668.831 52.9322L648.071 74.1535C647.579 74.6646 646.921 74.9246 646.271 74.9246Z" fill="#444E50"/>
</g>
<mask id="mask2_332_4682" style="mask-type:luminance" maskUnits="userSpaceOnUse" x="654" y="70" width="6" height="17">
<path d="M654.952 70.908H660V86.9742H654.952V70.908Z" fill="white"/>
</mask>
<g mask="url(#mask2_332_4682)">
<path d="M657.615 86.526C656.517 86.526 655.49 85.7818 655.174 84.6343C654.779 83.2536 655.561 81.8101 656.912 81.4156L685.125 73.1046C686.477 72.7101 687.89 73.5081 688.285 74.8888C688.662 76.2784 687.89 77.7129 686.538 78.1163L658.326 86.4184C658.089 86.4991 657.843 86.526 657.615 86.526Z" fill="#444E50"/>
</g>
<path d="M634.219 62.597C633.982 62.597 633.754 62.5612 633.508 62.4984C632.156 62.1039 631.384 60.6515 631.761 59.2708L639.89 30.4288C640.276 29.0392 641.698 28.2413 643.041 28.6447C644.393 29.0392 645.174 30.4826 644.788 31.8633L636.659 60.7143C636.343 61.8529 635.325 62.597 634.219 62.597Z" fill="#444E50"/>
<path d="M1.58004 203.989C0.526679 203.989 0 203.442 0 202.34V138.183C0 137.089 0.526679 136.533 1.58004 136.533H11.6923C12.7632 136.533 13.3074 137.089 13.3074 138.183V169.956C13.3074 170.225 13.3776 170.378 13.5181 170.422C13.6761 170.449 13.8165 170.369 13.9394 170.171L26.5095 155.432C27.1415 154.787 27.7911 154.464 28.4758 154.464H39.8871C40.326 154.464 40.6771 154.553 40.9405 154.715C41.195 154.858 41.3267 155.1 41.3267 155.432C41.3267 155.818 41.195 156.167 40.9405 156.472L29.3184 171.319C29.1253 171.516 29.1078 171.776 29.2482 172.108L43.1174 202.053L43.293 202.842C43.293 203.613 42.819 203.989 41.8885 203.989H31.2145C30.3455 203.989 29.7134 203.577 29.3184 202.734L20.1893 180.679C19.9962 180.302 19.7417 180.267 19.4169 180.571L13.5883 188.174C13.3952 188.443 13.3074 188.667 13.3074 188.855V202.34C13.3074 203.442 12.7632 203.989 11.6923 203.989H1.58004Z" fill="#444E50"/>
<path d="M57.6157 149.73C55.2281 149.73 53.2706 148.977 51.752 147.471C50.251 145.965 49.5048 144.028 49.5048 141.661C49.5048 139.276 50.251 137.322 51.752 135.816C53.2706 134.309 55.2281 133.556 57.6157 133.556C60.0735 133.556 62.0398 134.3 63.5145 135.78C64.9892 137.241 65.7265 139.205 65.7265 141.661C65.7265 144.1 64.9892 146.063 63.5145 147.542C62.0398 149.004 60.0735 149.73 57.6157 149.73ZM52.6298 203.989C51.5501 203.989 51.0146 203.442 51.0146 202.34V156.113C51.0146 155.02 51.5501 154.464 52.6298 154.464H62.7069C63.7778 154.464 64.3221 155.02 64.3221 156.113V202.34C64.3221 203.442 63.7778 203.989 62.7069 203.989H52.6298Z" fill="#444E50"/>
<path d="M96.1158 204.742C91.0772 204.742 86.7233 203.469 83.0541 200.905C79.3762 198.35 76.7428 194.809 75.1539 190.29C74.1006 187.089 73.5739 183.297 73.5739 178.922C73.5739 174.618 74.1006 170.907 75.1539 167.769C76.6725 163.394 79.2796 159.951 82.9839 157.44C86.7058 154.93 91.0772 153.675 96.1158 153.675C101.146 153.675 105.561 154.966 109.353 157.548C113.163 160.112 115.708 163.349 116.972 167.267C117.341 168.181 117.587 169.185 117.71 170.279V170.458C117.71 171.301 117.236 171.812 116.305 172L106.404 173.542L105.912 173.65C105.157 173.65 104.727 173.256 104.613 172.467L104.332 171.14C103.884 169.472 102.901 168.091 101.383 167.016C99.8815 165.922 98.0908 165.366 96.0104 165.366C93.9915 165.366 92.2973 165.886 90.9192 166.908C89.5323 167.912 88.5667 169.329 88.0049 171.14C87.3027 173.058 86.9515 175.685 86.9515 179.029C86.9515 182.382 87.2676 185.009 87.8996 186.919C88.4614 188.856 89.4445 190.38 90.849 191.473C92.271 192.549 93.9915 193.087 96.0104 193.087C97.9767 193.087 99.6972 192.567 101.172 191.509C102.647 190.46 103.665 189.026 104.227 187.206L104.332 186.74C104.376 186.48 104.587 186.184 104.964 185.843C105.359 185.484 105.772 185.332 106.193 185.377L116.13 186.919C116.621 187.062 116.972 187.304 117.183 187.636C117.411 187.95 117.499 188.318 117.429 188.748C117.306 189.779 117.157 190.523 116.972 190.971C115.638 195.275 113.057 198.646 109.248 201.084C105.456 203.523 101.075 204.742 96.1158 204.742Z" fill="#444E50"/>
<path d="M127.037 203.989C125.984 203.989 125.457 203.442 125.457 202.34V138.183C125.457 137.089 125.984 136.533 127.037 136.533H137.15C138.221 136.533 138.765 137.089 138.765 138.183V169.956C138.765 170.225 138.835 170.378 138.975 170.422C139.133 170.449 139.274 170.369 139.397 170.171L151.967 155.432C152.599 154.787 153.248 154.464 153.933 154.464H165.345C165.783 154.464 166.135 154.553 166.398 154.715C166.652 154.858 166.784 155.1 166.784 155.432C166.784 155.818 166.652 156.167 166.398 156.472L154.776 171.319C154.583 171.516 154.565 171.776 154.706 172.108L168.575 202.053L168.75 202.842C168.75 203.613 168.276 203.989 167.346 203.989H156.672C155.803 203.989 155.171 203.577 154.776 202.734L145.647 180.679C145.454 180.302 145.199 180.267 144.874 180.571L139.046 188.174C138.853 188.443 138.765 188.667 138.765 188.855V202.34C138.765 203.442 138.221 203.989 137.15 203.989H127.037Z" fill="#444E50"/>
<path d="M195.078 204.67C190.865 204.67 187.178 204.061 184.018 202.841C180.876 201.622 178.453 199.928 176.75 197.749C175.065 195.553 174.222 193.069 174.222 190.29V189.824C174.222 188.73 174.749 188.174 175.802 188.174H185.352C186.406 188.174 186.932 188.371 186.932 188.748V189.429C186.932 190.846 187.679 192.047 189.18 193.051C190.698 194.055 192.629 194.557 194.973 194.557C197.097 194.557 198.818 194.145 200.134 193.302C201.469 192.468 202.136 191.366 202.136 190.003C202.136 188.855 201.557 187.995 200.415 187.421C199.292 186.847 197.44 186.237 194.868 185.592C191.795 184.758 189.504 184.014 187.986 183.368C183.886 181.961 180.647 180.231 178.26 178.168C175.872 176.115 174.678 173.166 174.678 169.311C174.678 164.559 176.504 160.775 180.156 157.978C183.807 155.181 188.583 153.782 194.481 153.782C198.502 153.782 202.039 154.446 205.085 155.755C208.149 157.073 210.51 158.928 212.178 161.313C213.837 163.68 214.671 166.37 214.671 169.382C214.671 169.723 214.53 170.01 214.249 170.243C213.969 170.458 213.582 170.566 213.091 170.566H203.821C202.768 170.566 202.241 170.368 202.241 169.956V169.382C202.241 167.975 201.548 166.791 200.17 165.832C198.783 164.882 196.922 164.397 194.587 164.397C192.498 164.397 190.777 164.783 189.425 165.545C188.091 166.316 187.424 167.374 187.424 168.737C187.424 170.01 188.065 170.96 189.355 171.606C190.637 172.251 192.761 172.933 195.71 173.65C197.536 174.035 199.301 174.511 201.012 175.084C205.524 176.429 209.07 178.159 211.651 180.284C214.249 182.418 215.549 185.502 215.549 189.537C215.549 194.297 213.688 198.018 209.966 200.69C206.262 203.344 201.302 204.67 195.078 204.67Z" fill="#3F6168"/>
<path d="M276.935 153.675C281.851 153.675 285.687 155.199 288.452 158.229C291.208 161.242 292.595 165.473 292.595 170.924V202.34C292.595 203.442 292.069 203.989 291.015 203.989H280.903C279.823 203.989 279.288 203.442 279.288 202.34V173.937C279.288 171.283 278.629 169.194 277.322 167.661C276.005 166.137 274.249 165.366 272.055 165.366C269.852 165.366 268.052 166.137 266.648 167.661C265.261 169.194 264.576 171.247 264.576 173.829V202.34C264.576 203.442 264.049 203.989 262.996 203.989H252.989C251.909 203.989 251.374 203.442 251.374 202.34V173.937C251.374 171.355 250.68 169.293 249.302 167.733C247.915 166.155 246.125 165.366 243.93 165.366C241.911 165.366 240.226 165.976 238.874 167.195C237.513 168.414 236.715 170.118 236.486 172.287V202.34C236.486 203.442 235.942 203.989 234.871 203.989H224.759C223.706 203.989 223.179 203.442 223.179 202.34V156.114C223.179 155.02 223.706 154.464 224.759 154.464H234.871C235.942 154.464 236.486 155.02 236.486 156.114V159.198C236.486 159.44 236.557 159.592 236.697 159.664C236.855 159.736 236.996 159.646 237.118 159.377C239.717 155.576 243.684 153.675 249.021 153.675C252.155 153.675 254.885 154.347 257.202 155.683C259.537 157.001 261.346 158.902 262.61 161.385C262.68 161.654 262.785 161.771 262.926 161.744C263.084 161.699 263.224 161.582 263.347 161.385C264.795 158.83 266.683 156.902 269 155.611C271.335 154.32 273.986 153.675 276.935 153.675Z" fill="#3F6168"/>
<path d="M321.361 153.675C325.451 153.675 329.103 154.41 332.316 155.862C335.52 157.297 338.012 159.269 339.794 161.78C341.594 164.29 342.498 167.087 342.498 170.171V202.34C342.498 203.442 341.954 203.989 340.883 203.989H330.806C329.726 203.989 329.191 203.442 329.191 202.34V200.044C329.191 199.784 329.129 199.641 329.015 199.614C328.892 199.569 328.734 199.641 328.523 199.829C325.644 203.111 321.334 204.742 315.602 204.742C310.757 204.742 306.859 203.523 303.91 201.084C300.961 198.646 299.486 195.051 299.486 190.29C299.486 185.368 301.18 181.54 304.577 178.814C307.965 176.071 312.811 174.69 319.113 174.69H328.629C328.997 174.69 329.191 174.502 329.191 174.116V172.108C329.191 169.983 328.541 168.333 327.259 167.159C325.969 165.967 324.099 165.366 321.642 165.366C319.763 165.366 318.209 165.689 316.972 166.334C315.752 166.962 314.918 167.858 314.479 169.024C314.101 169.911 313.469 170.333 312.583 170.279L302.119 168.916C301.628 168.845 301.224 168.701 300.926 168.486C300.645 168.253 300.539 167.939 300.61 167.553C300.934 164.927 302.023 162.56 303.875 160.453C305.718 158.328 308.167 156.669 311.213 155.468C314.277 154.276 317.656 153.675 321.361 153.675ZM319.5 194.629C322.186 194.629 324.468 193.903 326.347 192.442C328.243 190.962 329.191 189.062 329.191 186.74V183.369C329.191 182.992 328.997 182.795 328.629 182.795H321.922C319.087 182.795 316.849 183.351 315.216 184.444C313.601 185.52 312.793 187.062 312.793 189.071C312.793 190.792 313.399 192.155 314.619 193.159C315.857 194.145 317.481 194.629 319.5 194.629Z" fill="#3F6168"/>
<path d="M375.906 153.782C377.917 153.782 379.576 154.168 380.892 154.93C381.638 155.315 381.919 155.997 381.735 156.974L379.944 167.087C379.874 167.661 379.698 168.02 379.418 168.163C379.137 168.288 378.68 168.271 378.048 168.127C377.039 167.894 376.126 167.768 375.309 167.768C374.888 167.768 374.168 167.831 373.168 167.948C370.894 168.145 368.972 168.988 367.409 170.494C365.838 172 365.057 174.008 365.057 176.519V202.339C365.057 203.442 364.513 203.989 363.442 203.989H353.329C352.276 203.989 351.749 203.442 351.749 202.339V156.113C351.749 155.02 352.276 154.464 353.329 154.464H363.442C364.513 154.464 365.057 155.02 365.057 156.113V159.09C365.057 159.359 365.109 159.52 365.232 159.592C365.346 159.646 365.496 159.574 365.689 159.377C368.217 155.647 371.623 153.782 375.906 153.782Z" fill="#3F6168"/>
<path d="M415.686 163.716C415.686 164.819 415.159 165.366 414.106 165.366H405.609C405.231 165.366 405.047 165.563 405.047 165.94V185.879C405.047 188.013 405.468 189.573 406.311 190.577C407.154 191.563 408.523 192.047 410.419 192.047H413.053C414.123 192.047 414.668 192.585 414.668 193.661V201.981C414.668 203.012 414.123 203.586 413.053 203.702C410.665 203.828 408.927 203.882 407.856 203.882C402.633 203.882 398.736 202.985 396.164 201.192C393.583 199.399 392.266 196.064 392.196 191.186V165.94C392.196 165.563 392.003 165.366 391.634 165.366H386.824C385.744 165.366 385.209 164.819 385.209 163.716V156.113C385.209 155.02 385.744 154.464 386.824 154.464H391.634C392.003 154.464 392.196 154.275 392.196 153.89V142.988C392.196 141.894 392.732 141.338 393.811 141.338H403.432C404.503 141.338 405.047 141.894 405.047 142.988V153.89C405.047 154.275 405.231 154.464 405.609 154.464H414.106C415.159 154.464 415.686 155.02 415.686 156.113V163.716Z" fill="#3F6168"/>
<path d="M447.107 193.302C451.25 193.114 454.419 191.635 456.622 188.855C457.017 188.407 457.43 188.174 457.851 188.174C458.246 188.174 458.597 188.344 458.905 188.676L464.277 193.984C464.645 194.369 464.839 194.755 464.839 195.131C464.839 195.588 464.716 195.974 464.487 196.279C462.398 198.915 459.73 200.977 456.482 202.483C453.252 203.989 449.714 204.742 445.878 204.742C440.093 204.742 435.292 203.236 431.482 200.224C427.69 197.211 425.127 193.078 423.793 187.815C423.038 184.973 422.669 181.988 422.669 178.85C422.669 175.12 423.02 171.964 423.723 169.382C424.96 164.648 427.488 160.838 431.307 157.942C435.116 155.055 439.637 153.603 444.86 153.603C451.013 153.603 455.894 155.468 459.502 159.197C463.127 162.909 465.479 168.145 466.559 174.905C466.787 177.012 466.98 179.352 467.121 181.934C467.121 183.01 466.577 183.548 465.506 183.548H436.538C436.161 183.548 435.977 183.745 435.977 184.121C436.161 185.484 436.38 186.488 436.644 187.134C437.276 189.124 438.513 190.648 440.366 191.724C442.209 192.782 444.456 193.302 447.107 193.302ZM444.649 165.366C442.63 165.366 440.945 165.868 439.593 166.872C438.259 167.858 437.328 169.239 436.819 171.032C436.512 172.251 436.328 173.058 436.257 173.435C436.187 173.82 436.345 174.008 436.749 174.008H452.76C453.085 174.008 453.252 173.892 453.252 173.65C453.252 172.933 453.12 172.197 452.865 171.426C452.304 169.562 451.329 168.091 449.951 167.015C448.564 165.922 446.8 165.366 444.649 165.366Z" fill="#3F6168"/>
<path d="M499.477 153.782C501.487 153.782 503.146 154.168 504.463 154.93C505.209 155.315 505.49 155.997 505.306 156.974L503.515 167.087C503.445 167.661 503.269 168.02 502.988 168.163C502.708 168.288 502.251 168.271 501.619 168.127C500.61 167.894 499.697 167.768 498.88 167.768C498.459 167.768 497.739 167.831 496.738 167.948C494.465 168.145 492.543 168.988 490.98 170.494C489.409 172 488.628 174.008 488.628 176.519V202.339C488.628 203.442 488.083 203.989 487.012 203.989H476.9C475.847 203.989 475.32 203.442 475.32 202.339V156.113C475.32 155.02 475.847 154.464 476.9 154.464H487.012C488.083 154.464 488.628 155.02 488.628 156.113V159.09C488.628 159.359 488.68 159.52 488.803 159.592C488.917 159.646 489.067 159.574 489.26 159.377C491.788 155.647 495.194 153.782 499.477 153.782Z" fill="#3F6168"/>
<path d="M518.997 204.384C516.54 204.384 514.486 203.577 512.853 201.945C511.211 200.295 510.395 198.314 510.395 195.992C510.395 193.751 511.273 191.814 513.028 190.182C514.802 188.533 516.794 187.708 518.997 187.708C521.315 187.708 523.351 188.533 525.107 190.182C526.88 191.814 527.775 193.751 527.775 195.992C527.775 198.314 526.915 200.295 525.212 201.945C523.501 203.577 521.429 204.384 518.997 204.384Z" fill="#3F6168"/>
<ellipse cx="487.706" cy="45.6357" rx="10.3129" ry="12.6999" fill="#444E50"/>
<path d="M464.014 77.2467C460.398 77.2467 457.237 78.3315 455.183 80.3398C453.366 82.1149 452.524 84.4729 452.664 87.3328C453.928 112.723 470.124 125.813 470.29 125.947L481.798 135.845L489.76 132.537C488.689 129.847 489.918 126.781 492.516 125.66L501.189 121.958C502.453 121.411 503.848 121.411 505.104 121.94C506.377 122.469 507.36 123.482 507.886 124.764L517.173 120.819C517.849 115.476 521.264 110.894 526.092 108.814L536.318 104.448C541.155 102.377 546.746 103.112 550.916 106.358L560.203 102.413C559.123 99.7142 560.352 96.639 562.951 95.5273L571.623 91.8156C572.878 91.2777 574.274 91.2777 575.538 91.8066C576.802 92.3356 577.785 93.3397 578.321 94.6308L586.256 91.2508C586.581 91.1253 586.8 90.8294 586.871 90.4887C587.362 87.9873 588.916 83.4598 593.84 80.9584C594.139 80.8329 610.72 73.3108 615.153 56.8591C616.549 51.695 615.338 46.4412 611.949 42.8192C609.237 39.9233 605.576 38.6771 602.144 39.475L589.697 42.3978C561.88 48.9067 530.806 48.844 506.289 42.2454C502.505 44.7109 500.513 50.2336 498.906 54.7343C498.327 56.3302 497.783 57.8364 497.204 59.0736C487.899 79.0039 466.103 77.3543 465.893 77.3363C465.252 77.2736 464.628 77.2467 464.014 77.2467ZM481.877 141.126C480.631 141.126 479.393 140.66 478.445 139.772L467.086 130C466.428 129.48 448.96 115.35 447.573 87.6018C447.353 83.2177 448.767 79.3984 451.663 76.5832C455.148 73.1853 460.52 71.5715 466.402 72.1543C467.095 72.1991 484.967 73.1943 492.613 56.8322C493.087 55.8102 493.587 54.4116 494.114 52.9412C496.054 47.5799 498.696 40.2281 504.814 37.1171L505.683 36.6778L506.614 36.9378C530.507 43.5992 561.142 43.7426 588.556 37.3144L601.003 34.3916C606.208 33.1813 611.668 34.9833 615.627 39.2061C620.28 44.1819 621.93 51.2826 620.069 58.2398C614.969 77.166 596.746 85.3515 595.982 85.6832C593.27 87.0549 592.234 89.6101 591.865 91.5018C591.461 93.5549 590.11 95.2673 588.222 96.0652L580.313 99.4542C577.715 100.566 574.713 99.3018 573.625 96.639L564.926 100.342C565.435 101.66 565.444 103.085 564.926 104.367C564.408 105.667 563.425 106.671 562.169 107.218L552.917 111.172C551.223 111.898 549.275 111.638 547.826 110.5C545.114 108.384 541.445 107.9 538.293 109.245L528.067 113.629C524.898 114.982 522.668 117.977 522.247 121.456C522.01 123.302 520.825 124.907 519.14 125.616L509.888 129.587C507.281 130.69 504.279 129.435 503.19 126.781L494.5 130.466C495 131.793 495.018 133.209 494.5 134.509C493.964 135.791 492.999 136.813 491.726 137.351L483.843 140.722C483.211 141 482.544 141.126 481.877 141.126Z" fill="#444E50"/>
<path d="M526.794 58.0515C526.54 58.0515 526.267 58.0156 526.004 57.926C524.67 57.4687 523.941 55.9984 524.371 54.6356L528.093 43.0253C528.532 41.6536 529.963 40.9095 531.306 41.3577C532.64 41.806 533.369 43.2764 532.939 44.6481L529.217 56.2584C528.866 57.3522 527.874 58.0515 526.794 58.0515Z" fill="#444E50"/>
<path d="M538.715 59.0199C538.46 59.0199 538.197 58.975 537.916 58.8854C536.59 58.4371 535.853 56.9668 536.301 55.604L540.014 43.9847C540.461 42.613 541.884 41.8689 543.227 42.3261C544.57 42.7654 545.298 44.2358 544.859 45.6075L541.137 57.2268C540.786 58.3116 539.794 59.0199 538.715 59.0199Z" fill="#444E50"/>
<path d="M552.048 58.8225C551.785 58.8225 551.522 58.7777 551.258 58.697C549.915 58.2398 549.178 56.7694 549.626 55.4067L553.339 43.7964C553.786 42.4157 555.208 41.6716 556.551 42.1288C557.894 42.5681 558.623 44.0384 558.184 45.4012L554.471 57.0294C554.111 58.1232 553.119 58.8225 552.048 58.8225Z" fill="#444E50"/>
<mask id="mask3_332_4682" style="mask-type:luminance" maskUnits="userSpaceOnUse" x="417" y="0" width="41" height="83">
<path d="M417.377 0H457.202V82.3839H417.377V0Z" fill="white"/>
</mask>
<g mask="url(#mask3_332_4682)">
<path d="M454.042 80.5281C452.752 80.5281 451.646 79.5239 451.514 78.1791C451.497 77.955 448.811 54.6268 418.044 5.3793C417.289 4.16896 417.631 2.56414 418.816 1.78414C420.001 1.00414 421.581 1.36276 422.336 2.5731C453.928 53.1385 456.491 76.6908 456.597 77.6591C456.72 79.1026 455.71 80.3757 454.297 80.5191C454.218 80.5281 454.13 80.5281 454.042 80.5281Z" fill="#444E50"/>
</g>
<mask id="mask4_332_4682" style="mask-type:luminance" maskUnits="userSpaceOnUse" x="463" y="0" width="42" height="48">
<path d="M463.944 0H504.393V47.9564H463.944V0Z" fill="white"/>
</mask>
<g mask="url(#mask4_332_4682)">
<path d="M500.258 47.8219C499.521 47.8219 498.793 47.4991 498.292 46.8895C497.406 45.7867 476.575 19.6434 465.77 -15.7883C465.357 -17.16 466.112 -18.6214 467.455 -19.0517C468.798 -19.491 470.229 -18.711 470.65 -17.3393C481.131 17.0972 502.014 43.3033 502.225 43.5633C503.111 44.684 502.971 46.3247 501.882 47.2391C501.4 47.6426 500.829 47.8219 500.258 47.8219Z" fill="#444E50"/>
</g>
<path d="M443.421 48.3868C442.157 48.3868 441.06 47.4364 440.893 46.1275C440.709 44.702 441.692 43.393 443.087 43.1958C459.493 40.9902 473.503 33.3965 483.607 21.2572C484.528 20.1634 486.117 20.0379 487.197 20.9613C488.268 21.8937 488.391 23.5344 487.486 24.6462C476.549 37.7806 461.425 45.984 443.755 48.3689C443.64 48.3868 443.535 48.3868 443.421 48.3868Z" fill="#444E50"/>
<path d="M466.472 128.529C465.498 128.529 464.567 127.955 464.146 126.978C463.575 125.66 464.155 124.127 465.445 123.544L587.073 68.5411C587.16 68.5052 601.363 61.5121 603.417 49.9467C603.663 48.5301 604.988 47.5887 606.375 47.8398C607.762 48.0998 608.675 49.4625 608.429 50.8791C605.91 65.1073 589.864 72.9611 589.188 73.2838L467.499 128.314C467.165 128.466 466.823 128.529 466.472 128.529Z" fill="#444E50"/>
<rect width="45.9914" height="18.9706" transform="matrix(0.909941 -0.414737 0.397195 0.917734 444.392 47.6042)" fill="#444E50"/>
<ellipse cx="458.83" cy="66.8022" rx="8.25036" ry="8.46661" fill="#444E50"/>
<ellipse cx="469.143" cy="60.4523" rx="10.3129" ry="12.6999" fill="#444E50"/>
<ellipse cx="475.331" cy="60.4523" rx="10.3129" ry="12.6999" fill="#444E50"/>
<ellipse cx="483.581" cy="58.3356" rx="10.3129" ry="12.6999" fill="#444E50"/>
<ellipse cx="484.613" cy="39.2857" rx="9.28165" ry="14.8166" fill="#444E50"/>
</svg>
