<svg width="0" height="0" style="position:absolute"><symbol fill="currentColor" viewBox="0 0 256.001 256.001" id="eraser" xmlns="http://www.w3.org/2000/svg"><path d="M216.001 203.833h-76l27.91-27.91.007-.006.006-.007 56.563-56.562a28.033 28.033 0 000-39.598L179.23 34.495a28.033 28.033 0 00-39.597 0l-56.56 56.56-.01.008-.009.01-56.559 56.56a28.032 28.032 0 000 39.597l37.089 37.088a12.003 12.003 0 008.485 3.515h143.931a12 12 0 000-24zM156.604 51.466a4.002 4.002 0 015.657 0l45.255 45.255a4.005 4.005 0 010 5.657l-48.083 48.083-50.912-50.912zM106.06 203.833H77.04L43.467 170.26a4.004 4.004 0 010-5.656L91.55 116.52l50.911 50.911z"/></symbol><symbol fill="none" viewBox="0 0 51 82" id="facebook" xmlns="http://www.w3.org/2000/svg"><path fill="currentColor" stroke="#605A64" stroke-width="1.456" d="M42.594 14.98h-7.98c-1.946 0-3.848 1.356-3.848 3.267a8.346 8.346 0 008.345 8.346h1.765c4.36 0 7.624 4 6.75 8.271a6.89 6.89 0 01-6.75 5.508h-.793a9.317 9.317 0 00-9.317 9.317v22.68a8.63 8.63 0 11-17.262 0v-25.03a6.967 6.967 0 00-6.967-6.967 5.511 5.511 0 01-5.511-5.511v-2.757a5.511 5.511 0 015.511-5.511 6.967 6.967 0 006.967-6.967v-1.379c0-9.266 9.322-17.046 21.11-17.046h7.98a6.89 6.89 0 010 13.779z"/></symbol><symbol fill="none" viewBox="0 0 300 300" id="foot-ball" xmlns="http://www.w3.org/2000/svg"><g clip-path="url(#cclip0_144_55)"><mask id="ca" style="mask-type:luminance" width="144" height="139" x="98" y="74" maskUnits="userSpaceOnUse"><path fill="#fff" d="M98.626 74.137H241.82v138.549H98.626V74.137z"/></mask><g mask="url(#ca)"><path fill="#444E50" d="M170.782 212.578c-38.927 0-70.591-32.278-70.591-71.952 0-1.423 1.136-2.58 2.543-2.58 1.398 0 2.534 1.157 2.534 2.58 0 36.836 29.384 66.783 65.514 66.783 36.131 0 65.522-29.947 65.522-66.783 0-25.775-14.804-49.522-37.72-60.484-1.268-.605-1.818-2.144-1.224-3.434.603-1.29 2.106-1.85 3.383-1.237 24.681 11.798 40.639 37.387 40.639 65.155 0 39.674-31.673 71.952-70.6 71.952z"/></g><path fill="#444E50" d="M153.293 150.921l17.489 10.294 17.488-10.294V130.35l-17.488-10.294-17.489 10.294v20.571zm17.489 16.256l-22.558-13.267v-26.558l22.558-13.266 22.566 13.266v26.558l-22.566 13.267zM124.452 194.046c-.874 0-1.73-.454-2.202-1.299-.691-1.228-.28-2.812.926-3.523l5.026-2.954v-20.58l-17.489-10.294-4.999 2.954a2.52 2.52 0 01-3.47-.951c-.707-1.229-.279-2.821.927-3.524l7.542-4.448 22.567 13.274v26.55l-7.56 4.448a2.537 2.537 0 01-1.268.347zM190.805 209.527c-1.399 0-2.535-1.147-2.535-2.589v-5.899l-17.488-10.294-17.489 10.294v5.89c0 1.424-1.136 2.58-2.525 2.58-1.399 0-2.544-1.156-2.544-2.58v-8.879l22.558-13.275 22.566 13.275v8.888c0 1.442-1.136 2.589-2.543 2.589zM217.104 194.037c-.437 0-.865-.106-1.267-.338l-7.551-4.448v-26.55l22.565-13.274 7.56 4.448c1.215.711 1.626 2.295.927 3.542-.699 1.227-2.264 1.645-3.461.942l-5.026-2.963-17.487 10.294v20.58l5.016 2.936c1.206.72 1.617 2.304.927 3.541a2.553 2.553 0 01-2.203 1.29zM230.851 131.836l-22.565-13.275v-26.55l7.56-4.448a2.51 2.51 0 013.469.952 2.622 2.622 0 01-.926 3.532l-5.025 2.954v20.571l17.487 10.294 4.999-2.945c1.215-.721 2.771-.285 3.47.943a2.613 2.613 0 01-.926 3.533l-7.543 4.439z"/><path fill="#444E50" d="M150.76 131.445c-.437 0-.865-.116-1.267-.357l-15.881-9.333c-1.206-.72-1.617-2.295-.926-3.532.708-1.245 2.255-1.664 3.47-.943l15.871 9.334c1.215.711 1.634 2.295.926 3.531a2.522 2.522 0 01-2.193 1.3zM170.782 119.656c-1.399 0-2.535-1.157-2.535-2.58v-14.058c0-1.433 1.136-2.589 2.535-2.589 1.398 0 2.534 1.156 2.534 2.589v14.058c0 1.423-1.136 2.58-2.534 2.58zM190.805 131.444a2.532 2.532 0 01-2.193-1.299c-.699-1.236-.289-2.82.926-3.531l20.023-11.78a2.518 2.518 0 013.47.943c.69 1.236.28 2.82-.927 3.532l-20.031 11.78c-.402.24-.831.355-1.268.355zM210.829 166.785c-.437 0-.866-.108-1.268-.348l-20.023-11.779c-1.215-.721-1.625-2.296-.926-3.532a2.49 2.49 0 013.461-.944l20.031 11.781c1.207.711 1.617 2.295.927 3.532a2.551 2.551 0 01-2.202 1.29zM170.782 190.345c-1.399 0-2.535-1.157-2.535-2.58v-23.57c0-1.423 1.136-2.589 2.535-2.589 1.398 0 2.534 1.166 2.534 2.589v23.57c0 1.423-1.136 2.58-2.534 2.58zM130.737 166.785a2.551 2.551 0 01-2.203-1.29c-.69-1.237-.279-2.821.944-3.532l20.015-11.781a2.49 2.49 0 013.461.944 2.607 2.607 0 01-.927 3.532l-20.023 11.779c-.402.24-.83.348-1.267.348z"/><mask id="cb" style="mask-type:luminance" width="17" height="29" x="226" y="46" maskUnits="userSpaceOnUse"><path fill="#fff" d="M226.158 46.805h16.212v27.332h-16.212V46.805z"/></mask><g mask="url(#cb)"><path fill="#444E50" d="M228.701 73.568a2.527 2.527 0 01-1.801-.765 2.617 2.617 0 010-3.648l20.67-21.078a2.516 2.516 0 013.592 0 2.64 2.64 0 010 3.666l-20.67 21.06a2.491 2.491 0 01-1.791.765z"/></g><mask id="cc" style="mask-type:luminance" width="6" height="17" x="237" y="69" maskUnits="userSpaceOnUse"><path fill="#fff" d="M237.345 69.582h5.025v15.944h-5.025V69.582z"/></mask><g mask="url(#cc)"><path fill="#444E50" d="M239.995 85.081a2.54 2.54 0 01-2.429-1.877c-.393-1.37.384-2.803 1.73-3.195l28.09-8.247c1.346-.392 2.753.4 3.146 1.77.376 1.38-.393 2.803-1.738 3.203l-28.091 8.24c-.236.08-.481.106-.708.106z"/></g><path fill="#444E50" d="M216.701 61.334c-.236 0-.463-.036-.708-.098-1.345-.391-2.115-1.833-1.738-3.203l8.092-28.623c.385-1.379 1.801-2.17 3.138-1.77 1.346.391 2.123 1.824 1.739 3.194l-8.093 28.631a2.534 2.534 0 01-2.43 1.869z"/></g><g clip-path="url(#cclip1_144_55)"><path fill="#444E50" d="M70.512 57.978c5.68 0 10.285-5.651 10.285-12.622s-4.605-12.622-10.285-12.622-10.284 5.651-10.284 12.622 4.604 12.622 10.284 12.622z"/><path fill="#444E50" d="M46.885 76.773c-3.607 0-6.758 1.079-8.806 3.075-1.813 1.764-2.653 4.107-2.513 6.95 1.26 25.234 17.412 38.244 17.578 38.377l11.476 9.838 7.94-3.288c-1.068-2.674.158-5.721 2.749-6.835l8.649-3.679a4.95 4.95 0 013.904-.018A5.117 5.117 0 0190.637 124l9.262-3.921c.673-5.311 4.079-9.864 8.894-11.932l10.197-4.339c4.824-2.058 10.401-1.328 14.558 1.898l9.262-3.92c-1.077-2.683.148-5.739 2.74-6.844l8.649-3.689a4.99 4.99 0 013.904-.009c1.26.526 2.241 1.524 2.775 2.807l7.913-3.36c.324-.124.543-.418.614-.757.489-2.486 2.039-6.986 6.95-9.472.298-.124 16.833-7.6 21.254-23.951 1.392-5.133.185-10.354-3.195-13.954-2.705-2.878-6.355-4.117-9.778-3.324l-12.413 2.905c-27.741 6.47-58.729 6.407-83.18-.151-3.772 2.45-5.76 7.939-7.361 12.412-.578 1.586-1.12 3.083-1.699 4.313-9.279 19.808-31.015 18.168-31.225 18.15-.639-.062-1.26-.089-1.873-.089zm17.814 63.488a5.023 5.023 0 01-3.423-1.345l-11.327-9.713c-.657-.516-18.077-14.56-19.46-42.138-.219-4.357 1.19-8.153 4.08-10.95 3.475-3.378 8.832-4.982 14.697-4.403.692.045 18.515 1.034 26.14-15.228.472-1.016.97-2.406 1.496-3.867 1.935-5.329 4.57-12.635 10.671-15.727l.867-.437.928.258c23.827 6.621 54.378 6.764 81.717.375l12.413-2.905c5.192-1.203 10.636.588 14.584 4.785 4.64 4.945 6.285 12.002 4.43 18.917-5.086 18.81-23.259 26.946-24.021 27.275-2.705 1.364-3.738 3.903-4.106 5.783-.402 2.04-1.75 3.743-3.633 4.536l-7.887 3.368c-2.591 1.105-5.585-.152-6.67-2.798l-8.675 3.68c.508 1.31.516 2.726 0 4.001a5.15 5.15 0 01-2.75 2.833l-9.226 3.93a5.03 5.03 0 01-5.077-.668 9.488 9.488 0 00-9.507-1.247l-10.198 4.357c-3.16 1.344-5.383 4.321-5.804 7.779-.236 1.835-1.418 3.43-3.098 4.134l-9.227 3.947c-2.6 1.096-5.594-.151-6.68-2.789l-8.666 3.663c.5 1.319.517 2.726 0 4.018-.534 1.274-1.497 2.29-2.766 2.824l-7.861 3.351a4.865 4.865 0 01-1.96.401z"/><path fill="#444E50" d="M109.493 57.696c-.254 0-.525-.036-.788-.125-1.331-.454-2.058-1.916-1.628-3.27l3.711-11.54c.438-1.363 1.865-2.102 3.204-1.657 1.331.446 2.058 1.907 1.629 3.27l-3.712 11.54a2.544 2.544 0 01-2.416 1.782zM121.381 58.658c-.254 0-.517-.044-.797-.133-1.321-.446-2.057-1.907-1.61-3.262l3.702-11.548c.447-1.363 1.865-2.103 3.204-1.648 1.34.436 2.067 1.898 1.629 3.261l-3.712 11.548a2.556 2.556 0 01-2.416 1.782zM134.678 58.462c-.262 0-.525-.044-.788-.125a2.6 2.6 0 01-1.628-3.27l3.703-11.539c.447-1.372 1.865-2.112 3.204-1.657 1.339.436 2.066 1.898 1.628 3.252l-3.702 11.557c-.359 1.087-1.349 1.782-2.417 1.782z"/><mask id="cd" style="mask-type:luminance" width="41" height="82" x="0" y="0" maskUnits="userSpaceOnUse"><path fill="#fff" d="M.376 0h39.716v81.88H.376V0z"/></mask><g mask="url(#cd)"><path fill="#444E50" d="M36.94 80.035c-1.286 0-2.389-.998-2.52-2.335-.018-.222-2.696-23.408-33.379-72.354-.753-1.202-.411-2.797.77-3.573a2.51 2.51 0 013.51.784c31.506 50.256 34.062 73.664 34.167 74.626.123 1.435-.884 2.7-2.293 2.843-.079.009-.166.009-.254.009z"/></g><mask id="ce" style="mask-type:luminance" width="42" height="48" x="46" y="0" maskUnits="userSpaceOnUse"><path fill="#fff" d="M46.815 0h40.338v47.663H46.815V0z"/></mask><g mask="url(#ce)"><path fill="#444E50" d="M83.03 47.529c-.735 0-1.462-.32-1.96-.927-.885-1.096-21.658-27.079-32.434-62.293-.411-1.364.341-2.816 1.68-3.244 1.34-.437 2.767.339 3.187 1.702 10.452 34.225 31.278 60.271 31.488 60.53.884 1.113.744 2.744-.341 3.653-.482.4-1.05.579-1.62.579z"/></g><path fill="#444E50" d="M26.349 48.09a2.554 2.554 0 01-2.521-2.245c-.184-1.417.796-2.718 2.188-2.914 16.361-2.192 30.332-9.74 40.408-21.804a2.516 2.516 0 013.58-.294c1.068.927 1.19 2.557.29 3.662C59.385 37.55 44.302 45.702 26.68 48.073c-.113.017-.218.017-.332.017zM49.337 127.741c-.972 0-1.9-.57-2.32-1.541-.57-1.31.009-2.834 1.295-3.413l121.294-54.666c.088-.035 14.252-6.986 16.3-18.48.245-1.408 1.567-2.344 2.95-2.094 1.383.258 2.294 1.613 2.049 3.02-2.513 14.141-18.516 21.947-19.189 22.268L50.361 127.528a2.423 2.423 0 01-1.024.213z"/><path fill="#444E50" d="M69.052 28.355L27.317 47.312l7.515 17.304 41.734-18.958-7.514-17.303z"/><path fill="#444E50" d="M41.716 74.808c4.544 0 8.227-3.768 8.227-8.415 0-4.647-3.683-8.415-8.227-8.415-4.544 0-8.228 3.768-8.228 8.415 0 4.647 3.684 8.415 8.228 8.415z"/><path fill="#444E50" d="M52 72.704c5.68 0 10.284-5.651 10.284-12.622S57.68 47.46 52 47.46c-5.68 0-10.285 5.65-10.285 12.622 0 6.97 4.605 12.622 10.285 12.622z"/><path fill="#444E50" d="M58.171 72.704c5.68 0 10.285-5.651 10.285-12.622S63.851 47.46 58.171 47.46s-10.284 5.65-10.284 12.622c0 6.97 4.604 12.622 10.284 12.622z"/><path fill="#444E50" d="M66.399 70.6c5.68 0 10.284-5.65 10.284-12.622 0-6.97-4.604-12.622-10.284-12.622-5.68 0-10.285 5.651-10.285 12.622S60.72 70.6 66.4 70.6z"/><path fill="#444E50" d="M67.427 53.77c5.112 0 9.256-6.592 9.256-14.725s-4.144-14.726-9.256-14.726-9.256 6.593-9.256 14.726c0 8.133 4.144 14.726 9.256 14.726z"/></g><defs><clipPath id="cclip0_144_55"><path fill="#fff" d="M0 0h144.37v186.57H0z" transform="translate(98 27)"/></clipPath><clipPath id="cclip1_144_55"><path fill="#fff" d="M0 0h203.44v141.13H0z"/></clipPath></defs></symbol><symbol fill="none" viewBox="0 0 46 48" id="google" xmlns="http://www.w3.org/2000/svg"><path fill="currentColor" stroke="#605A64" d="M23.865 21.068l17.19.007c2.09.001 3.855 1.505 3.855 3.477 0 6.747-2.163 12.48-5.92 16.524-3.753 4.04-9.128 6.424-15.622 6.424C10.975 47.5.91 37.011.91 24S10.975.5 23.368.5c4.452 0 8.36 1.246 11.668 3.421 1.716 1.128 1.785 3.59.237 5.148-1.505 1.514-4.031 1.492-6.15.512-1.569-.726-3.482-1.228-5.758-1.228-8.142 0-14.731 7.04-14.731 15.65s6.589 15.65 14.73 15.65c4.898 0 8.23-1.928 10.367-4.314.683-.762 1.025-1.6 1.062-2.438.036-.834-.232-1.63-.705-2.31-.94-1.355-2.707-2.288-4.697-2.288h-.15a5.375 5.375 0 01-5.376-5.375v-1.86z"/></symbol><symbol fill="none" viewBox="0 0 49 22" id="live" xmlns="http://www.w3.org/2000/svg"><path stroke="#000" d="M20 1.03l-9 11M11 11.53l8.888 9.684M15 1.061l-9 11M6 11.56l8.888 9.685M10 1.061l-9 11M1 11.56l8.888 9.685M29 1.03l9 11M38 11.53l-8.888 9.684M34 1.061l9 11M43 11.56l-8.888 9.685M39 1.061l9 11M48 11.56l-8.888 9.685"/><circle cx="24.5" cy="11.5" r="4.5" fill="#000"/></symbol><symbol fill="none" viewBox="0 0 660 216" id="logo" xmlns="http://www.w3.org/2000/svg"><mask id="fa" style="mask-type:luminance" width="145" height="141" x="515" y="75" maskUnits="userSpaceOnUse"><path fill="#fff" d="M515.629 75.498h143.818V215.11H515.629V75.499z"/></mask><g mask="url(#fa)"><path fill="#444E50" d="M588.1 215.001c-39.098 0-70.9-32.526-70.9-72.504 0-1.434 1.141-2.6 2.554-2.6 1.405 0 2.546 1.166 2.546 2.6 0 37.118 29.511 67.295 65.8 67.295 36.288 0 65.808-30.177 65.808-67.295 0-25.973-14.87-49.902-37.886-60.947-1.272-.61-1.826-2.16-1.229-3.46.606-1.3 2.116-1.865 3.397-1.247 24.789 11.888 40.818 37.673 40.818 65.654 0 39.978-31.811 72.504-70.908 72.504z"/></g><path fill="#444E50" d="M570.535 152.871l17.564 10.373 17.565-10.373v-20.729l-17.565-10.373-17.564 10.373v20.729zm17.564 16.379l-22.656-13.367v-26.762l22.656-13.368 22.665 13.368v26.762l-22.665 13.367zM541.568 196.326a2.522 2.522 0 01-2.213-1.309c-.693-1.237-.28-2.833.931-3.55l5.047-2.976v-20.738l-17.564-10.373-5.021 2.977a2.526 2.526 0 01-3.485-.959c-.711-1.238-.281-2.843.93-3.551l7.576-4.483 22.664 13.377v26.753l-7.593 4.483a2.544 2.544 0 01-1.272.349zM608.21 211.926c-1.405 0-2.546-1.156-2.546-2.609v-5.944L588.099 193l-17.564 10.373v5.935c0 1.435-1.142 2.6-2.537 2.6-1.405 0-2.555-1.165-2.555-2.6v-8.947l22.656-13.377 22.665 13.377v8.956c0 1.453-1.141 2.609-2.554 2.609zM634.623 196.317c-.439 0-.869-.107-1.273-.34l-7.584-4.483v-26.753l22.665-13.377 7.593 4.483c1.22.717 1.632 2.313.93 3.568-.702 1.238-2.273 1.659-3.476.951l-5.047-2.986-17.565 10.373v20.738l5.038 2.958c1.212.726 1.624 2.322.931 3.568a2.558 2.558 0 01-2.212 1.3zM648.431 133.64l-22.665-13.377V93.51l7.593-4.483a2.518 2.518 0 013.485.96c.702 1.246.281 2.833-.931 3.559l-5.047 2.976v20.729l17.565 10.373 5.021-2.968c1.22-.726 2.782-.287 3.484.951.712 1.246.281 2.842-.93 3.559l-7.575 4.474z"/><path fill="#444E50" d="M567.989 133.245a2.44 2.44 0 01-1.273-.359l-15.949-9.404c-1.211-.727-1.624-2.313-.931-3.56.711-1.255 2.265-1.676 3.485-.95l15.941 9.405c1.22.717 1.642 2.313.931 3.559a2.535 2.535 0 01-2.204 1.309zM588.099 121.366c-1.404 0-2.545-1.166-2.545-2.6V104.6c0-1.443 1.141-2.609 2.545-2.609 1.405 0 2.546 1.166 2.546 2.609v14.166c0 1.434-1.141 2.6-2.546 2.6zM608.21 133.245a2.543 2.543 0 01-2.203-1.309c-.703-1.246-.29-2.842.93-3.559l20.11-11.87c1.22-.718 2.774-.296 3.485.95.694 1.246.281 2.842-.93 3.559l-20.119 11.871a2.449 2.449 0 01-1.273.358zM628.32 168.856a2.44 2.44 0 01-1.273-.35l-20.11-11.87c-1.22-.726-1.633-2.313-.93-3.559.702-1.255 2.255-1.677 3.476-.951l20.119 11.871c1.211.717 1.624 2.313.93 3.559a2.558 2.558 0 01-2.212 1.3zM588.099 192.597c-1.404 0-2.545-1.166-2.545-2.6v-23.75c0-1.434 1.141-2.609 2.545-2.609 1.405 0 2.546 1.175 2.546 2.609v23.75c0 1.434-1.141 2.6-2.546 2.6zM547.879 168.856a2.558 2.558 0 01-2.212-1.3c-.694-1.246-.281-2.842.948-3.559l20.101-11.871a2.497 2.497 0 013.477.951 2.63 2.63 0 01-.931 3.559l-20.11 11.87a2.44 2.44 0 01-1.273.35z"/><mask id="fb" style="mask-type:luminance" width="17" height="29" x="643" y="47" maskUnits="userSpaceOnUse"><path fill="#fff" d="M643.717 47.956H660v27.542h-16.283V47.956z"/></mask><g mask="url(#fb)"><path fill="#444E50" d="M646.271 74.925c-.649 0-1.308-.26-1.808-.772a2.642 2.642 0 010-3.675l20.76-21.24a2.521 2.521 0 013.608 0 2.664 2.664 0 010 3.694l-20.76 21.221a2.501 2.501 0 01-1.8.772z"/></g><mask id="fc" style="mask-type:luminance" width="6" height="17" x="654" y="70" maskUnits="userSpaceOnUse"><path fill="#fff" d="M654.952 70.908H660v16.066h-5.048V70.908z"/></mask><g mask="url(#fc)"><path fill="#444E50" d="M657.615 86.526a2.553 2.553 0 01-2.441-1.892c-.395-1.38.387-2.824 1.738-3.218l28.213-8.311c1.352-.395 2.765.403 3.16 1.784.377 1.39-.395 2.824-1.747 3.227l-28.212 8.302c-.237.081-.483.108-.711.108z"/></g><path fill="#444E50" d="M634.219 62.597c-.237 0-.465-.036-.711-.099-1.352-.394-2.124-1.846-1.747-3.227l8.129-28.842c.386-1.39 1.808-2.188 3.151-1.784 1.352.394 2.133 1.838 1.747 3.218l-8.129 28.851a2.547 2.547 0 01-2.44 1.883zM1.58 203.989c-1.053 0-1.58-.547-1.58-1.649v-64.157c0-1.094.527-1.65 1.58-1.65h10.112c1.071 0 1.615.556 1.615 1.65v31.773c0 .269.07.422.211.466.158.027.298-.053.421-.251l12.57-14.739c.633-.645 1.282-.968 1.967-.968h11.411c.439 0 .79.089 1.053.251.255.143.387.385.387.717 0 .386-.132.735-.386 1.04l-11.623 14.847c-.193.197-.21.457-.07.789l13.87 29.945.175.789c0 .771-.474 1.147-1.404 1.147H31.213c-.868 0-1.5-.412-1.896-1.255l-9.129-22.055c-.193-.377-.447-.412-.772-.108l-5.829 7.603c-.193.269-.28.493-.28.681v13.485c0 1.102-.545 1.649-1.616 1.649H1.58zM57.616 149.73c-2.388 0-4.345-.753-5.864-2.259-1.501-1.506-2.247-3.443-2.247-5.81 0-2.385.746-4.339 2.247-5.845 1.519-1.507 3.476-2.26 5.864-2.26 2.458 0 4.424.744 5.898 2.224 1.475 1.461 2.212 3.425 2.212 5.881 0 2.439-.737 4.402-2.212 5.881-1.474 1.462-3.44 2.188-5.898 2.188zm-4.986 54.259c-1.08 0-1.615-.547-1.615-1.649v-46.227c0-1.093.535-1.649 1.615-1.649h10.077c1.07 0 1.615.556 1.615 1.649v46.227c0 1.102-.544 1.649-1.615 1.649H52.63zM96.116 204.742c-5.039 0-9.393-1.273-13.062-3.837-3.678-2.555-6.311-6.096-7.9-10.615-1.053-3.201-1.58-6.993-1.58-11.368 0-4.304.527-8.015 1.58-11.153 1.519-4.375 4.126-7.818 7.83-10.329 3.722-2.51 8.093-3.765 13.132-3.765 5.03 0 9.445 1.291 13.237 3.873 3.81 2.564 6.355 5.801 7.619 9.719.369.914.615 1.918.738 3.012v.179c0 .843-.474 1.354-1.405 1.542l-9.901 1.542-.492.108c-.755 0-1.185-.394-1.299-1.183l-.281-1.327c-.448-1.668-1.431-3.049-2.949-4.124-1.501-1.094-3.292-1.65-5.373-1.65-2.019 0-3.713.52-5.09 1.542-1.388 1.004-2.353 2.421-2.915 4.232-.702 1.918-1.053 4.545-1.053 7.889 0 3.353.316 5.98.948 7.89.561 1.937 1.544 3.461 2.949 4.554 1.422 1.076 3.142 1.614 5.161 1.614 1.967 0 3.687-.52 5.162-1.578 1.475-1.049 2.493-2.483 3.055-4.303l.105-.466c.044-.26.255-.556.632-.897.395-.359.808-.511 1.229-.466l9.937 1.542c.491.143.842.385 1.053.717.228.314.316.682.246 1.112-.123 1.031-.272 1.775-.457 2.223-1.334 4.304-3.915 7.675-7.724 10.113-3.792 2.439-8.173 3.658-13.132 3.658zM127.037 203.989c-1.053 0-1.58-.547-1.58-1.649v-64.157c0-1.094.527-1.65 1.58-1.65h10.113c1.071 0 1.615.556 1.615 1.65v31.773c0 .269.07.422.21.466.158.027.299-.053.422-.251l12.57-14.739c.632-.645 1.281-.968 1.966-.968h11.412c.438 0 .79.089 1.053.251.254.143.386.385.386.717 0 .386-.132.735-.386 1.04l-11.622 14.847c-.193.197-.211.457-.07.789l13.869 29.945.175.789c0 .771-.474 1.147-1.404 1.147h-10.674c-.869 0-1.501-.412-1.896-1.255l-9.129-22.055c-.193-.377-.448-.412-.773-.108l-5.828 7.603c-.193.269-.281.493-.281.681v13.485c0 1.102-.544 1.649-1.615 1.649h-10.113z"/><path fill="#3F6168" d="M195.078 204.67c-4.213 0-7.9-.609-11.06-1.829-3.142-1.219-5.565-2.913-7.268-5.092-1.685-2.196-2.528-4.68-2.528-7.459v-.466c0-1.094.527-1.65 1.58-1.65h9.55c1.054 0 1.58.197 1.58.574v.681c0 1.417.747 2.618 2.248 3.622 1.518 1.004 3.449 1.506 5.793 1.506 2.124 0 3.845-.412 5.161-1.255 1.335-.834 2.002-1.936 2.002-3.299 0-1.148-.579-2.008-1.721-2.582-1.123-.574-2.975-1.184-5.547-1.829-3.073-.834-5.364-1.578-6.882-2.224-4.1-1.407-7.339-3.137-9.726-5.2-2.388-2.053-3.582-5.002-3.582-8.857 0-4.752 1.826-8.536 5.478-11.333 3.651-2.797 8.427-4.196 14.325-4.196 4.021 0 7.558.664 10.604 1.973 3.064 1.318 5.425 3.173 7.093 5.558 1.659 2.367 2.493 5.057 2.493 8.069 0 .341-.141.628-.422.861-.28.215-.667.323-1.158.323h-9.27c-1.053 0-1.58-.198-1.58-.61v-.574c0-1.407-.693-2.591-2.071-3.55-1.387-.95-3.248-1.435-5.583-1.435-2.089 0-3.81.386-5.162 1.148-1.334.771-2.001 1.829-2.001 3.192 0 1.273.641 2.223 1.931 2.869 1.282.645 3.406 1.327 6.355 2.044a47.58 47.58 0 015.302 1.434c4.512 1.345 8.058 3.075 10.639 5.2 2.598 2.134 3.898 5.218 3.898 9.253 0 4.76-1.861 8.481-5.583 11.153-3.704 2.654-8.664 3.98-14.888 3.98zM276.935 153.675c4.916 0 8.752 1.524 11.517 4.554 2.756 3.013 4.143 7.244 4.143 12.695v31.416c0 1.102-.526 1.649-1.58 1.649h-10.112c-1.08 0-1.615-.547-1.615-1.649v-28.403c0-2.654-.659-4.743-1.966-6.276-1.317-1.524-3.073-2.295-5.267-2.295-2.203 0-4.003.771-5.407 2.295-1.387 1.533-2.072 3.586-2.072 6.168v28.511c0 1.102-.527 1.649-1.58 1.649h-10.007c-1.08 0-1.615-.547-1.615-1.649v-28.403c0-2.582-.694-4.644-2.072-6.204-1.387-1.578-3.177-2.367-5.372-2.367-2.019 0-3.704.61-5.056 1.829-1.361 1.219-2.159 2.923-2.388 5.092v30.053c0 1.102-.544 1.649-1.615 1.649h-10.112c-1.053 0-1.58-.547-1.58-1.649v-46.226c0-1.094.527-1.65 1.58-1.65h10.112c1.071 0 1.615.556 1.615 1.65v3.084c0 .242.071.394.211.466.158.072.299-.018.421-.287 2.599-3.801 6.566-5.702 11.903-5.702 3.134 0 5.864.672 8.181 2.008 2.335 1.318 4.144 3.219 5.408 5.702.07.269.175.386.316.359.158-.045.298-.162.421-.359 1.448-2.555 3.336-4.483 5.653-5.774 2.335-1.291 4.986-1.936 7.935-1.936zM321.361 153.675c4.09 0 7.742.735 10.955 2.187 3.204 1.435 5.696 3.407 7.478 5.918 1.8 2.51 2.704 5.307 2.704 8.391v32.169c0 1.102-.544 1.649-1.615 1.649h-10.077c-1.08 0-1.615-.547-1.615-1.649v-2.296c0-.26-.062-.403-.176-.43-.123-.045-.281.027-.492.215-2.879 3.282-7.189 4.913-12.921 4.913-4.845 0-8.743-1.219-11.692-3.658-2.949-2.438-4.424-6.033-4.424-10.794 0-4.922 1.694-8.75 5.091-11.476 3.388-2.743 8.234-4.124 14.536-4.124h9.516c.368 0 .562-.188.562-.574v-2.008c0-2.125-.65-3.775-1.932-4.949-1.29-1.192-3.16-1.793-5.617-1.793-1.879 0-3.433.323-4.67.968-1.22.628-2.054 1.524-2.493 2.69-.378.887-1.01 1.309-1.896 1.255l-10.464-1.363c-.491-.071-.895-.215-1.193-.43-.281-.233-.387-.547-.316-.933.324-2.626 1.413-4.993 3.265-7.1 1.843-2.125 4.292-3.784 7.338-4.985 3.064-1.192 6.443-1.793 10.148-1.793zm-1.861 40.954c2.686 0 4.968-.726 6.847-2.187 1.896-1.48 2.844-3.38 2.844-5.702v-3.371c0-.377-.194-.574-.562-.574h-6.707c-2.835 0-5.073.556-6.706 1.649-1.615 1.076-2.423 2.618-2.423 4.627 0 1.721.606 3.084 1.826 4.088 1.238.986 2.862 1.47 4.881 1.47zM375.906 153.782c2.011 0 3.67.386 4.986 1.148.746.385 1.027 1.067.843 2.044l-1.791 10.113c-.07.574-.246.933-.526 1.076-.281.125-.738.108-1.37-.036-1.009-.233-1.922-.359-2.739-.359-.421 0-1.141.063-2.141.18-2.274.197-4.196 1.04-5.759 2.546-1.571 1.506-2.352 3.514-2.352 6.025v25.82c0 1.103-.544 1.65-1.615 1.65h-10.113c-1.053 0-1.58-.547-1.58-1.65v-46.226c0-1.093.527-1.649 1.58-1.649h10.113c1.071 0 1.615.556 1.615 1.649v2.977c0 .269.052.43.175.502.114.054.264-.018.457-.215 2.528-3.73 5.934-5.595 10.217-5.595zM415.686 163.716c0 1.103-.527 1.65-1.58 1.65h-8.497c-.378 0-.562.197-.562.574v19.939c0 2.134.421 3.694 1.264 4.698.843.986 2.212 1.47 4.108 1.47h2.634c1.07 0 1.615.538 1.615 1.614v8.32c0 1.031-.545 1.605-1.615 1.721-2.388.126-4.126.18-5.197.18-5.223 0-9.12-.897-11.692-2.69-2.581-1.793-3.898-5.128-3.968-10.006V165.94c0-.377-.193-.574-.562-.574h-4.81c-1.08 0-1.615-.547-1.615-1.65v-7.603c0-1.093.535-1.649 1.615-1.649h4.81c.369 0 .562-.189.562-.574v-10.902c0-1.094.536-1.65 1.615-1.65h9.621c1.071 0 1.615.556 1.615 1.65v10.902c0 .385.184.574.562.574h8.497c1.053 0 1.58.556 1.58 1.649v7.603zM447.107 193.302c4.143-.188 7.312-1.667 9.515-4.447.395-.448.808-.681 1.229-.681.395 0 .746.17 1.054.502l5.372 5.308c.368.385.562.771.562 1.147 0 .457-.123.843-.352 1.148-2.089 2.636-4.757 4.698-8.005 6.204-3.23 1.506-6.768 2.259-10.604 2.259-5.785 0-10.586-1.506-14.396-4.518-3.792-3.013-6.355-7.146-7.689-12.409-.755-2.842-1.124-5.827-1.124-8.965 0-3.73.351-6.886 1.054-9.468 1.237-4.734 3.765-8.544 7.584-11.44 3.809-2.887 8.33-4.339 13.553-4.339 6.153 0 11.034 1.865 14.642 5.594 3.625 3.712 5.977 8.948 7.057 15.708.228 2.107.421 4.447.562 7.029 0 1.076-.544 1.614-1.615 1.614h-28.968c-.377 0-.561.197-.561.573.184 1.363.403 2.367.667 3.013.632 1.99 1.869 3.514 3.722 4.59 1.843 1.058 4.09 1.578 6.741 1.578zm-2.458-27.936c-2.019 0-3.704.502-5.056 1.506-1.334.986-2.265 2.367-2.774 4.16-.307 1.219-.491 2.026-.562 2.403-.07.385.088.573.492.573h16.011c.325 0 .492-.116.492-.358 0-.717-.132-1.453-.387-2.224-.561-1.864-1.536-3.335-2.914-4.411-1.387-1.093-3.151-1.649-5.302-1.649zM499.477 153.782c2.01 0 3.669.386 4.986 1.148.746.385 1.027 1.067.843 2.044l-1.791 10.113c-.07.574-.246.933-.527 1.076-.28.125-.737.108-1.369-.036-1.009-.233-1.922-.359-2.739-.359-.421 0-1.141.063-2.142.18-2.273.197-4.195 1.04-5.758 2.546-1.571 1.506-2.352 3.514-2.352 6.025v25.82c0 1.103-.545 1.65-1.616 1.65H476.9c-1.053 0-1.58-.547-1.58-1.65v-46.226c0-1.093.527-1.649 1.58-1.649h10.112c1.071 0 1.616.556 1.616 1.649v2.977c0 .269.052.43.175.502.114.054.264-.018.457-.215 2.528-3.73 5.934-5.595 10.217-5.595zM518.997 204.384c-2.457 0-4.511-.807-6.144-2.439-1.642-1.65-2.458-3.631-2.458-5.953 0-2.241.878-4.178 2.633-5.81 1.774-1.649 3.766-2.474 5.969-2.474 2.318 0 4.354.825 6.11 2.474 1.773 1.632 2.668 3.569 2.668 5.81 0 2.322-.86 4.303-2.563 5.953-1.711 1.632-3.783 2.439-6.215 2.439z"/><ellipse cx="487.706" cy="45.636" fill="#444E50" rx="10.313" ry="12.7"/><path fill="#444E50" d="M464.014 77.247c-3.616 0-6.777 1.085-8.831 3.093-1.817 1.775-2.659 4.133-2.519 6.993 1.264 25.39 17.46 38.48 17.626 38.614l11.508 9.898 7.962-3.308c-1.071-2.69.158-5.756 2.756-6.877l8.673-3.702a4.95 4.95 0 013.915-.018c1.273.529 2.256 1.542 2.782 2.824l9.287-3.945c.676-5.343 4.091-9.925 8.919-12.005l10.226-4.366c4.837-2.071 10.428-1.336 14.598 1.91l9.287-3.945c-1.08-2.699.149-5.774 2.748-6.886l8.672-3.711a4.99 4.99 0 013.915-.01c1.264.53 2.247 1.534 2.783 2.825l7.935-3.38c.325-.126.544-.422.615-.762.491-2.502 2.045-7.03 6.969-9.53.299-.126 16.88-7.648 21.313-24.1 1.396-5.164.185-10.418-3.204-14.04-2.712-2.896-6.373-4.142-9.805-3.344l-12.447 2.923c-27.817 6.509-58.891 6.446-83.408-.153-3.784 2.466-5.776 7.989-7.383 12.49-.579 1.595-1.123 3.101-1.702 4.339-9.305 19.93-31.101 18.28-31.311 18.262a19.238 19.238 0 00-1.879-.09zm17.863 63.879a5.026 5.026 0 01-3.432-1.354L467.086 130c-.658-.52-18.126-14.65-19.513-42.398-.22-4.384 1.194-8.204 4.09-11.019 3.485-3.398 8.857-5.011 14.739-4.429.693.045 18.565 1.04 26.211-15.322.474-1.022.974-2.42 1.501-3.89 1.94-5.362 4.582-12.714 10.7-15.825l.869-.44.931.26c23.893 6.662 54.528 6.806 81.942.377l12.447-2.922c5.205-1.21 10.665.591 14.624 4.814 4.653 4.976 6.303 12.077 4.442 19.034-5.1 18.926-23.323 27.111-24.087 27.443-2.712 1.372-3.748 3.927-4.117 5.819-.404 2.053-1.755 3.765-3.643 4.563l-7.909 3.39c-2.598 1.111-5.6-.153-6.688-2.816l-8.699 3.703c.509 1.318.518 2.743 0 4.025a5.172 5.172 0 01-2.757 2.851l-9.252 3.954a5.028 5.028 0 01-5.091-.672 9.487 9.487 0 00-9.533-1.255l-10.226 4.384c-3.169 1.353-5.399 4.348-5.82 7.827-.237 1.846-1.422 3.451-3.107 4.16l-9.252 3.971c-2.607 1.103-5.609-.152-6.698-2.806l-8.69 3.685c.5 1.327.518 2.743 0 4.043-.536 1.282-1.501 2.304-2.774 2.842l-7.883 3.371a4.859 4.859 0 01-1.966.404z"/><path fill="#444E50" d="M526.794 58.051c-.254 0-.527-.035-.79-.125-1.334-.457-2.063-1.928-1.633-3.29l3.722-11.61c.439-1.372 1.87-2.117 3.213-1.668 1.334.448 2.063 1.918 1.633 3.29l-3.722 11.61a2.553 2.553 0 01-2.423 1.793zM538.715 59.02c-.255 0-.518-.045-.799-.135-1.326-.448-2.063-1.918-1.615-3.281l3.713-11.62c.447-1.371 1.87-2.115 3.213-1.658 1.343.44 2.071 1.91 1.632 3.282l-3.722 11.619c-.351 1.085-1.343 1.793-2.422 1.793zM552.048 58.822c-.263 0-.526-.044-.79-.125a2.617 2.617 0 01-1.632-3.29l3.713-11.61c.447-1.381 1.869-2.125 3.212-1.668 1.343.44 2.072 1.91 1.633 3.272l-3.713 11.628c-.36 1.094-1.352 1.793-2.423 1.793z"/><mask id="fd" style="mask-type:luminance" width="41" height="83" x="417" y="0" maskUnits="userSpaceOnUse"><path fill="#fff" d="M417.377 0h39.825v82.384h-39.825V0z"/></mask><g mask="url(#fd)"><path fill="#444E50" d="M454.042 80.528c-1.29 0-2.396-1.004-2.528-2.349-.017-.224-2.703-23.552-33.47-72.8-.755-1.21-.413-2.815.772-3.595a2.512 2.512 0 013.52.79c31.592 50.564 34.155 74.117 34.261 75.085.123 1.444-.887 2.717-2.3 2.86-.079.01-.167.01-.255.01z"/></g><mask id="fe" style="mask-type:luminance" width="42" height="48" x="463" y="0" maskUnits="userSpaceOnUse"><path fill="#fff" d="M463.944 0h40.449v47.956h-40.449V0z"/></mask><g mask="url(#fe)"><path fill="#444E50" d="M500.258 47.822a2.542 2.542 0 01-1.966-.933c-.886-1.102-21.717-27.246-32.522-62.677-.413-1.372.342-2.833 1.685-3.264 1.343-.439 2.774.341 3.195 1.713 10.481 34.436 31.364 60.642 31.575 60.902.886 1.121.746 2.762-.343 3.676a2.497 2.497 0 01-1.624.583z"/></g><path fill="#444E50" d="M443.421 48.387c-1.264 0-2.361-.95-2.528-2.26-.184-1.425.799-2.734 2.194-2.931 16.406-2.206 30.416-9.8 40.52-21.939a2.517 2.517 0 013.59-.296c1.071.933 1.194 2.573.289 3.685-10.937 13.135-26.061 21.338-43.731 23.723-.115.018-.22.018-.334.018zM466.472 128.529a2.536 2.536 0 01-2.326-1.551c-.571-1.318.009-2.851 1.299-3.434l121.628-55.003c.087-.036 14.29-7.029 16.344-18.594.246-1.417 1.571-2.358 2.958-2.107 1.387.26 2.3 1.622 2.054 3.04-2.519 14.227-18.565 22.081-19.241 22.404l-121.689 55.03a2.439 2.439 0 01-1.027.215z"/><path fill="#444E50" d="M444.392 47.604l41.85-19.074 7.534 17.41-41.849 19.075z"/><ellipse cx="458.83" cy="66.802" fill="#444E50" rx="8.25" ry="8.467"/><ellipse cx="469.143" cy="60.452" fill="#444E50" rx="10.313" ry="12.7"/><ellipse cx="475.331" cy="60.452" fill="#444E50" rx="10.313" ry="12.7"/><ellipse cx="483.581" cy="58.336" fill="#444E50" rx="10.313" ry="12.7"/><ellipse cx="484.613" cy="39.286" fill="#444E50" rx="9.282" ry="14.817"/></symbol><symbol fill="none" viewBox="0 0 24 36" id="pause" xmlns="http://www.w3.org/2000/svg"><path fill="#3F6168" d="M.221.71h8.563v35.108H.221zM14.778.71h8.563v35.108h-8.563z"/></symbol><symbol id="pencil" viewBox="0 0 32 32" xml:space="preserve" xmlns="http://www.w3.org/2000/svg"><path d="M5 21l-2 8 8-2L30 8c-.6-3-3-5.4-6-6L5 21zM26 12c-.6-3-3-5.4-6-6M9 23l12-12" class="hst0"/></symbol><symbol fill="none" viewBox="0 0 34 40" id="play" xmlns="http://www.w3.org/2000/svg"><path fill="#3F6168" d="M33.67 20.264L.919.983v38.561l32.753-19.28z"/></symbol><symbol fill="none" viewBox="0 0 36 36" id="stop" xmlns="http://www.w3.org/2000/svg"><path fill="#3F6168" d="M.892.71H36v35.108H.892z"/></symbol></svg>